 <svg  version="1.0" xmlns="http://www.w3.org/2000/svg"  width="450.000000pt" height="450.000000pt" viewBox="0 0 450.000000 450.000000"  preserveAspectRatio="xMidYMid meet">  <g transform="translate(0.000000,450.000000) scale(0.050000,-0.050000)" fill="#402d52" stroke="none"> <path d="M5185 8980 c30 -9 80 -9 110 0 45 13 34 17 -55 17 -89 0 -100 -4 -55 -17z"/> <path d="M4397 7690 c-6 -6 -44 -12 -84 -14 -41 -1 -83 -15 -96 -29 -12 -15 -32 -27 -44 -28 -30 -1 -113 -70 -113 -94 0 -28 -71 -87 -87 -72 -7 8 -13 -1 -13 -19 0 -17 -16 -41 -35 -53 -26 -15 -29 -25 -11 -36 23 -16 6 -70 -21 -67 -7 1 -17 1 -23 0 -5 -2 -19 -5 -30 -8 -11 -3 -29 -6 -40 -7 -11 -2 -20 -16 -20 -33 0 -16 -22 -35 -49 -42 -27 -6 -56 -31 -63 -55 -7 -24 -23 -50 -36 -58 -15 -10 -15 -14 3 -15 38 0 30 -74 -10 -89 -31 -12 -30 -17 13 -50 33 -25 45 -49 37 -77 -6 -23 0 -46 12 -50 17 -5 17 -15 -1 -37 -20 -23 -16 -29 20 -32 68 -5 146 -110 95 -128 -38 -15 -82 -47 -179 -134 -28 -25 -41 -40 -27 -33 14 7 25 3 25 -9 0 -11 -8 -21 -18 -21 -11 0 -45 -22 -78 -49 -32 -28 -66 -43 -74 -35 -9 8 -11 4 -3 -9 15 -26 -23 -147 -47 -147 -9 0 -21 -15 -28 -33 -11 -27 -8 -29 18 -7 25 20 30 19 30 -8 0 -17 -7 -32 -16 -32 -21 0 -21 -87 1 -102 16 -11 23 -89 17 -182 -1 -18 -16 -47 -33 -65 -18 -17 -27 -31 -20 -31 6 0 -6 -36 -29 -79 -22 -44 -40 -90 -40 -103 0 -13 -17 -38 -38 -56 -21 -18 -41 -55 -46 -83 -4 -27 -18 -47 -31 -44 -13 2 -19 -7 -14 -22 6 -14 -13 -51 -41 -81 -83 -90 -112 -144 -97 -182 8 -21 6 -32 -5 -25 -10 7 -20 -25 -21 -72 0 -46 3 -72 8 -58 14 40 45 29 45 -16 0 -23 15 -70 34 -105 19 -35 35 -73 35 -84 1 -11 16 -22 35 -26 31 -6 32 1 13 55 -32 94 -2 150 34 64 16 -37 24 -75 18 -85 -6 -10 -2 -18 10 -18 11 0 21 -14 21 -31 0 -17 -9 -26 -20 -19 -47 29 -14 -28 55 -94 117 -112 266 -118 375 -16 l47 44 21 -77 c12 -42 22 -128 22 -191 0 -178 29 -175 116 14 25 55 42 80 37 55 -5 -25 -1 -45 10 -45 26 0 -9 -56 -92 -147 -38 -42 -78 -71 -89 -64 -11 6 -15 -13 -9 -47 5 -32 -1 -64 -12 -72 -12 -7 -16 -22 -9 -34 7 -11 1 -28 -14 -37 -16 -10 -37 -56 -49 -103 -12 -49 -38 -95 -60 -106 -48 -26 -58 -65 -26 -104 20 -24 19 -33 -9 -49 -19 -10 -34 -33 -34 -50 0 -17 -18 -46 -41 -64 -54 -44 -101 -182 -77 -226 21 -40 4 -97 -29 -97 -13 -1 0 -19 27 -40 39 -31 44 -44 23 -57 -14 -10 -26 -23 -25 -30 11 -79 -24 -99 -108 -64 -117 48 -106 22 14 -36 131 -63 166 -91 184 -148 8 -25 21 -45 28 -46 44 -2 89 -59 67 -86 -19 -23 -8 -30 62 -41 47 -8 119 -36 160 -63 317 -209 895 -241 1905 -106 399 53 564 37 317 -32 -64 -17 -141 -45 -170 -62 -29 -16 -64 -29 -78 -29 -14 0 -92 -32 -174 -72 -97 -46 -170 -69 -205 -64 -43 7 -53 2 -44 -21 8 -22 2 -26 -24 -17 -19 8 -29 5 -22 -5 17 -28 -63 -64 -157 -71 -77 -6 -201 44 -288 115 -17 14 -25 13 -25 -2 0 -12 52 -49 115 -81 146 -75 218 -130 150 -115 -29 6 -40 2 -32 -12 9 -14 1 -17 -19 -9 -18 7 -37 5 -43 -4 -15 -25 -110 -40 -123 -19 -19 30 -48 18 -48 -21 0 -39 -36 -62 -115 -76 -24 -4 -68 -29 -98 -57 -29 -27 -67 -49 -85 -49 -59 1 -122 24 -111 42 6 10 4 19 -5 20 -64 6 -224 70 -246 99 -5 7 -61 29 -124 48 -137 43 -130 53 129 182 92 46 145 83 131 92 -13 8 -51 -1 -85 -19 -33 -17 -73 -30 -89 -27 -18 4 -23 -5 -15 -25 6 -17 5 -30 -3 -28 -8 3 -34 -7 -59 -21 -25 -14 -55 -19 -65 -13 -11 7 -20 2 -20 -10 0 -41 -231 25 -280 81 -5 7 -66 37 -134 68 -68 32 -122 67 -120 78 2 12 -15 23 -38 24 -133 10 -224 107 -103 111 l65 2 -66 16 c-40 9 -90 7 -125 -7 -48 -18 -63 -16 -84 10 -14 18 -51 38 -82 45 -31 8 -78 35 -105 62 -26 26 -48 44 -48 39 0 -6 -36 8 -79 31 -44 22 -94 40 -113 40 -27 0 -28 6 -9 29 20 24 17 28 -17 21 -23 -4 -47 2 -55 14 -8 13 -4 16 10 8 13 -8 23 -4 23 8 0 13 -16 18 -35 11 -20 -6 -70 7 -112 30 -41 22 -86 39 -99 37 -163 -20 -114 29 184 185 l279 146 -300 154 c-351 179 -355 182 -237 175 59 -3 124 10 188 39 53 23 103 43 110 43 8 0 76 40 151 90 75 49 154 90 174 90 20 0 37 8 37 19 0 34 127 83 184 70 41 -9 56 -4 56 16 0 16 23 39 50 51 28 13 50 32 50 44 0 11 15 20 33 20 18 0 54 25 80 55 28 33 54 47 62 35 23 -31 65 -33 53 -2 -7 18 7 34 36 43 106 33 212 160 168 203 -5 6 -359 -168 -786 -385 -427 -218 -933 -475 -1126 -573 -192 -98 -352 -184 -354 -192 -5 -14 1045 -565 2332 -1224 445 -228 725 -360 754 -356 65 8 3129 1583 3112 1599 -18 17 -757 399 -1414 731 -275 139 -567 287 -650 329 -178 90 -205 69 -73 -56 51 -48 93 -95 93 -105 0 -10 16 -16 35 -15 19 2 33 -7 31 -20 -3 -14 11 -19 35 -13 23 7 39 1 39 -14 0 -15 18 -21 49 -15 62 12 147 -43 140 -91 -5 -29 0 -32 23 -13 19 16 28 17 28 2 0 -12 14 -17 30 -10 27 10 40 -13 32 -59 -1 -9 29 -10 67 -3 58 11 77 5 118 -40 27 -29 57 -51 66 -48 33 7 134 -45 172 -89 22 -24 49 -41 61 -38 50 15 113 -16 100 -49 -10 -27 -3 -31 41 -20 31 8 53 5 53 -7 0 -11 7 -19 15 -18 255 41 211 -20 -145 -201 l-293 -149 240 -114 c348 -165 351 -168 228 -205 -99 -29 -115 -36 -240 -101 -50 -26 -65 -28 -66 -8 0 14 -11 8 -23 -14 -32 -55 -69 -90 -82 -77 -6 5 -34 -5 -62 -24 -50 -32 -52 -32 -68 12 l-17 45 -34 -47 c-20 -30 -54 -48 -88 -49 -30 -1 -66 -8 -79 -16 -13 -8 -29 -5 -37 8 -10 16 -18 16 -29 -2 -8 -13 -65 -27 -127 -30 -62 -4 -123 -14 -137 -22 -33 -21 -156 -23 -143 -4 5 9 19 16 30 16 11 0 51 32 89 70 37 39 68 66 68 60 0 -5 18 8 40 30 22 22 40 52 40 68 0 15 19 32 41 38 35 9 39 17 20 52 -25 48 -7 144 26 140 49 -5 117 27 91 43 -16 10 -37 3 -53 -17 -26 -32 -27 -31 -17 2 9 29 2 35 -33 30 -31 -4 -46 6 -52 34 -20 106 -65 115 -123 23 -228 -359 -957 -510 -1600 -332 -535 149 -725 500 -414 766 29 25 43 61 44 114 1 45 20 102 43 134 23 31 52 115 64 187 13 73 41 184 63 248 22 64 36 120 32 125 -5 5 13 51 41 102 48 90 51 142 14 259 -8 27 -4 26 21 -5 18 -21 33 -71 33 -110 1 -68 2 -69 22 -21 11 28 17 84 13 125 -4 41 0 75 8 75 9 0 16 -9 16 -21 0 -11 41 21 91 70 l90 91 185 -1 c130 -1 171 -7 139 -20 -25 -10 -45 -23 -45 -30 0 -6 11 -5 25 4 16 9 15 2 -3 -20 -16 -19 -40 -30 -55 -25 -15 6 -27 1 -27 -11 0 -12 -12 -17 -28 -11 -15 6 -50 -1 -78 -16 -46 -24 -55 -22 -84 17 -17 24 -26 32 -20 18 7 -14 3 -25 -7 -25 -11 0 -23 16 -27 35 -15 78 -162 -258 -208 -475 -14 -66 -15 -67 -27 -20 -11 42 -18 30 -48 -75 -45 -159 -30 -235 68 -354 76 -92 88 -120 143 -351 22 -92 34 -111 74 -117 40 -5 45 0 32 30 -211 500 -110 822 359 1154 45 31 113 87 151 124 181 172 221 215 212 224 -5 5 -31 -14 -56 -43 -25 -28 -100 -70 -166 -92 -74 -26 -94 -37 -51 -30 l69 11 -43 -41 c-24 -22 -52 -40 -62 -40 -76 0 -358 -231 -468 -381 -125 -173 -158 -153 -63 38 56 111 256 297 401 373 349 182 492 351 556 660 30 141 22 210 -23 210 -20 0 -27 19 -22 65 7 77 103 109 123 41 26 -88 52 -288 54 -416 4 -368 -7 -716 -21 -654 -22 94 -33 96 -49 10 -7 -42 -43 -166 -79 -276 -94 -286 -182 -567 -258 -820 l-66 -220 -169 5 c-456 14 -675 103 -770 313 -42 92 -47 97 -48 43 -9 -457 1148 -623 1563 -225 95 91 134 99 136 29 1 -42 -154 -176 -255 -221 -495 -220 -1273 -117 -1468 196 -34 56 -37 57 -37 14 0 -234 256 -412 710 -492 210 -37 371 -99 470 -182 45 -38 94 -63 109 -58 33 13 58 68 32 68 -10 0 -24 18 -31 40 -7 22 -23 40 -36 40 -13 0 -76 22 -140 48 l-117 47 107 13 c59 8 175 32 257 54 82 23 201 51 264 63 119 23 161 58 54 44 l-61 -7 71 82 c39 46 71 91 71 100 0 9 25 1 55 -17 30 -19 58 -37 61 -39 21 -13 -25 -109 -48 -100 -16 6 -28 2 -28 -10 0 -12 36 -18 85 -14 110 8 129 100 47 221 -47 70 -32 84 38 35 11 -8 38 -19 60 -25 22 -7 70 -21 107 -33 55 -17 65 -15 56 8 -8 21 8 27 67 25 42 -2 73 -11 67 -19 -5 -9 0 -16 11 -16 11 0 25 9 32 20 19 31 50 24 38 -9 -8 -20 0 -25 30 -17 23 6 42 19 42 30 0 10 10 12 22 5 16 -10 14 -19 -5 -31 -21 -14 -19 -17 8 -18 19 0 35 10 35 22 0 15 19 17 55 7 241 -65 267 -33 46 56 -92 37 -151 45 -341 47 -435 3 -520 27 -520 146 0 52 -18 94 -62 148 -48 58 -70 116 -101 267 -44 217 -44 220 70 588 128 413 173 830 125 1163 -27 188 -28 189 -135 133 -74 -39 -117 -46 -290 -47 -235 0 -254 -10 -179 -88 94 -98 106 -241 40 -477 -73 -264 -390 -420 -538 -265 -69 72 -73 72 -107 17 -24 -37 -23 -41 5 -31 110 42 2 -39 -143 -108 -96 -46 -237 -132 -313 -191 -77 -59 -151 -107 -166 -107 -15 0 -74 -27 -133 -60 -72 -41 -131 -59 -185 -58 l-78 2 83 17 c80 16 387 209 387 243 0 36 -76 13 -122 -37 -185 -201 -418 -229 -418 -48 0 51 8 57 91 68 123 17 169 45 169 103 0 71 -27 76 -131 20 -228 -121 -322 31 -157 255 51 69 147 237 215 374 129 264 133 284 103 524 l-15 113 122 118 c67 65 136 151 153 192 21 52 44 75 75 77 25 2 79 6 120 8 41 3 117 31 170 63 118 73 211 106 299 106 52 0 87 19 152 81 46 45 107 104 134 130 28 27 66 49 84 49 19 0 41 12 50 27 41 69 111 81 155 26 106 -133 93 -241 -14 -112 -41 50 -60 59 -103 48 -62 -16 -58 -43 24 -189 l50 -90 -96 95 c-110 109 -170 124 -170 41 0 -39 27 -79 95 -141 l95 -88 -80 46 c-44 25 -111 66 -149 92 -73 49 -100 37 -101 -47 0 -58 15 -67 80 -48 58 17 200 -55 200 -101 0 -35 -53 -20 -108 31 -63 58 -72 61 -72 21 0 -16 34 -52 75 -80 51 -36 63 -51 38 -51 -55 0 -155 66 -144 95 6 16 -7 25 -37 25 -26 0 -58 14 -72 30 -33 39 -53 38 -69 -5 -9 -24 3 -49 38 -79 28 -24 51 -56 51 -70 1 -21 4 -20 18 1 12 20 27 21 54 6 21 -11 63 -26 93 -32 30 -7 55 -22 55 -34 0 -41 -185 1 -288 64 -110 69 -138 59 -128 -43 9 -93 107 -158 240 -158 97 0 216 44 216 80 0 10 14 14 30 7 43 -16 37 -67 -8 -67 -20 0 -49 -14 -64 -32 -30 -37 -220 -132 -235 -118 -5 5 -21 0 -36 -13 -31 -25 -38 -166 -7 -147 11 7 20 37 21 66 l0 54 29 -50 c44 -77 37 -94 -65 -169 -96 -71 -138 -89 -114 -49 23 37 -78 -25 -107 -65 -15 -20 -37 -37 -50 -36 -13 0 -7 13 15 30 21 16 29 29 17 29 -26 0 -78 -60 -53 -61 9 0 -10 -24 -43 -52 -33 -28 -46 -45 -30 -36 17 8 4 -13 -27 -46 -32 -34 -70 -57 -85 -51 -31 12 -38 97 -9 115 10 7 39 53 64 103 50 101 145 194 248 242 l66 32 -42 56 c-34 47 -41 82 -37 192 3 90 -2 129 -15 116 -31 -31 -103 -262 -103 -328 0 -73 -18 -122 -45 -122 -12 0 -15 26 -7 65 l12 65 -42 -70 c-23 -38 -62 -91 -85 -117 -40 -43 -40 -46 -5 -40 52 9 63 -34 18 -71 -20 -16 -86 -69 -146 -118 -105 -84 -514 -566 -496 -584 4 -5 87 81 183 190 256 291 416 390 188 116 -217 -260 -283 -356 -258 -381 17 -17 23 -15 23 12 0 28 7 31 40 13 31 -17 37 -34 27 -74 -9 -36 -6 -48 10 -38 13 8 23 49 23 91 0 189 445 541 686 541 75 0 154 54 178 121 6 16 16 24 22 19 6 -6 -6 -50 -27 -98 -31 -68 -33 -82 -9 -62 17 14 40 64 52 110 12 47 46 111 75 144 33 35 56 86 59 127 6 81 86 261 99 223 5 -14 -6 -47 -23 -74 -35 -54 -43 -119 -12 -100 11 7 39 -1 62 -17 31 -22 56 -25 92 -11 28 10 105 22 173 27 68 4 130 9 138 9 8 1 15 14 15 28 0 14 41 40 90 59 100 37 117 19 39 -42 -81 -64 -26 -66 103 -5 109 53 149 88 288 250 l50 58 -120 -14 c-129 -14 -539 -147 -694 -225 -123 -61 -156 -60 -156 4 0 139 196 219 586 240 269 14 445 44 280 47 -67 2 -82 8 -73 32 20 54 -83 45 -145 -12 -41 -39 -41 -38 -79 32 -21 38 -39 70 -41 70 -2 0 -45 -19 -96 -41 -132 -58 -155 -39 -43 34 58 38 86 68 73 76 -13 8 -81 -23 -152 -68 -155 -98 -171 -81 -27 29 126 97 93 119 -38 26 -135 -97 -136 -97 -140 -54 -5 66 228 296 365 361 313 149 670 -1 670 -281 0 -67 29 -98 48 -50 37 95 -14 368 -68 368 -11 0 -20 18 -20 39 0 26 -10 36 -28 29 -17 -7 -34 6 -42 32 -10 32 -20 37 -39 21 -20 -17 -29 -11 -38 23 -15 58 -2 68 40 34 32 -26 32 -25 0 24 -18 28 -29 56 -23 61 52 52 -355 165 -465 129 -25 -8 -45 -7 -45 2 0 9 -31 16 -70 16 -46 0 -70 -9 -70 -27 0 -16 -12 -23 -29 -16 -17 6 -38 -4 -49 -23 -10 -18 -26 -27 -34 -19 -8 8 -25 0 -38 -18 -28 -39 -70 -20 -70 33 0 116 -125 285 -230 312 -28 7 -56 21 -63 32 -7 13 -19 10 -29 -7 -13 -21 -21 -22 -41 -2 -34 34 -57 31 -57 -6 0 -24 -8 -26 -39 -10 -60 32 -91 27 -61 -9 34 -41 13 -59 -37 -32 -22 12 -61 22 -87 23 -44 0 -44 2 -9 28 20 16 50 23 65 17 15 -5 28 -2 28 9 0 28 141 43 238 25 59 -10 81 -8 76 8 -4 12 -27 25 -51 28 -24 4 -38 15 -32 26 6 10 36 13 65 8 47 -10 49 -9 11 8 -51 23 -275 48 -290 32z m-76 -231 c69 -37 43 -59 -56 -46 -109 14 -114 17 -96 46 17 27 102 27 152 0z m-37 -92 c34 -19 -9 -60 -55 -52 -69 14 -149 -11 -149 -45 0 -20 20 -30 60 -30 40 0 60 -10 60 -30 0 -21 -21 -30 -66 -30 -36 0 -85 -14 -110 -31 -55 -39 -64 8 -12 60 17 17 38 56 46 86 23 86 137 121 226 72z m504 -48 c89 -78 144 -222 88 -231 -62 -10 -87 -19 -101 -38 -9 -13 -14 -12 -15 2 0 12 -14 21 -31 21 -17 0 -26 -11 -21 -24 5 -15 -12 -31 -41 -38 -27 -7 -46 -23 -42 -36 12 -37 -255 -272 -281 -246 -40 40 -14 381 36 470 102 183 278 234 408 120z m668 -183 c37 -37 28 -90 -16 -102 -27 -7 -36 -21 -28 -42 7 -18 2 -32 -10 -32 -12 0 -22 12 -22 27 0 15 -18 51 -40 79 l-40 51 55 20 c73 27 73 27 101 -1z m-177 -35 c45 -84 -19 -163 -73 -90 -15 21 -40 30 -65 23 -60 -15 -51 31 14 71 72 44 99 44 124 -4z m341 -8 c0 -69 -22 -78 -74 -30 -61 58 -58 77 14 77 50 0 60 -8 60 -47z m-1701 -168 c1 -36 10 -65 21 -65 11 0 20 9 20 20 0 25 171 3 250 -32 58 -26 56 -27 -43 -16 -136 15 -266 -24 -269 -80 -1 -23 -24 21 -51 98 l-48 140 11 -110 c6 -60 15 -141 19 -180 7 -49 1 -41 -18 30 -29 108 -40 354 -16 378 27 27 124 -115 124 -183z m1812 165 c26 -19 32 -34 17 -45 -12 -8 -32 -33 -44 -55 -21 -37 -23 -37 -23 14 -1 29 -10 59 -21 66 -29 18 -25 50 6 50 15 0 44 -13 65 -30z m-1621 -30 c7 -11 32 -21 56 -22 24 -1 -14 -14 -86 -28 -148 -29 -151 -28 -121 28 24 44 128 59 151 22z m79 -142 c-69 -27 -117 -22 -91 9 13 17 44 23 77 17 48 -9 50 -12 14 -26z m-152 -216 c19 -12 0 -26 -65 -48 -70 -24 -92 -26 -92 -7 0 61 95 95 157 55z m1473 -882 c8 -12 -23 -20 -79 -20 -50 0 -91 9 -91 20 0 11 35 20 79 20 43 0 84 -9 91 -20z m15 -97 c17 -17 -1 -24 -76 -25 l-99 -2 74 -23 c132 -41 143 -79 18 -63 -116 16 -132 -15 -19 -38 65 -13 117 -45 117 -72 0 -14 -180 15 -198 32 -13 12 -41 213 -32 228 13 20 188 -10 215 -37z m-1045 -64 c0 -74 -96 -135 -168 -107 -49 19 -38 63 23 97 65 35 145 40 145 10z m960 -191 c44 -18 80 -45 80 -60 0 -33 -19 -35 -91 -7 -86 32 -80 8 10 -43 65 -36 111 -98 73 -98 -43 0 -152 68 -154 95 -1 19 -5 60 -10 90 -11 65 -12 64 92 23z m2 -229 c50 -36 80 -99 47 -99 -43 0 -129 67 -129 101 0 49 10 49 82 -2z m-7 -118 c25 -21 45 -52 45 -70 0 -46 -113 19 -127 72 -12 47 24 46 82 -2z m-21 -124 c50 -48 59 -77 23 -77 -34 0 -97 61 -97 93 0 38 20 34 74 -16z m-1476 -516 l-2 -71 -17 85 c-9 47 -23 97 -29 110 -7 14 1 8 19 -14 17 -21 30 -71 29 -110z m48 59 c5 -27 3 -68 -6 -90 -14 -32 -17 -25 -19 33 0 41 -7 90 -14 110 -9 25 -6 30 7 17 12 -11 26 -42 32 -70z m1240 -425 c17 -143 26 -181 62 -251 59 -114 78 -344 29 -344 -11 0 -14 -9 -8 -19 7 -10 -6 -28 -27 -40 -26 -14 -44 -14 -52 -1 -7 11 2 20 19 20 17 0 31 8 31 18 0 10 -18 13 -41 8 -27 -7 -37 -22 -29 -45 11 -34 -73 -65 -253 -92 -67 -10 -73 -7 -63 30 6 23 22 41 37 41 14 0 23 16 20 35 -3 19 0 44 6 55 14 23 20 47 36 132 8 38 18 53 27 38 10 -17 18 -14 27 8 6 18 4 32 -5 32 -9 0 -6 32 6 70 12 39 28 70 35 70 16 0 47 157 39 197 -2 15 5 21 17 14 19 -12 30 15 22 57 -5 29 16 72 36 72 9 0 23 -47 29 -105z m1813 -775 c19 0 56 -18 81 -40 55 -47 40 -51 -47 -11 -35 16 -94 38 -133 50 l-70 21 68 -10 c37 -6 82 -10 101 -10z m-4619 -77 c38 -28 85 -54 104 -57 20 -3 55 -25 79 -49 36 -36 38 -42 8 -30 -32 12 -33 10 -9 -20 15 -19 17 -28 4 -21 -14 9 -28 -2 -36 -26 -9 -27 -30 -40 -68 -40 -30 0 -72 -13 -93 -29 -51 -39 -161 -40 -176 -1 -7 18 -24 24 -45 16 -30 -11 -29 -15 9 -29 51 -19 56 -48 10 -65 -35 -14 -287 140 -287 175 0 11 -5 14 -12 8 -7 -7 -24 -2 -38 11 -30 28 -3 74 42 74 16 0 28 9 28 20 0 34 103 66 203 63 78 -2 94 4 103 39 14 51 70 39 174 -39z m4519 6 c24 15 163 -30 151 -49 -6 -10 11 -13 38 -9 27 5 55 0 62 -11 7 -11 29 -20 49 -20 36 0 73 -55 51 -76 -5 -6 -10 0 -10 13 0 13 -10 23 -22 23 -12 0 -17 -13 -12 -28 16 -41 -8 -56 -43 -27 -25 20 -28 20 -15 -1 11 -18 2 -30 -26 -38 -23 -6 -37 -18 -31 -27 5 -9 -18 -13 -51 -9 -41 6 -60 -1 -60 -19 0 -35 -86 -56 -144 -33 -25 9 -55 19 -66 20 -128 21 -269 83 -269 118 -1 16 9 20 24 11 17 -10 16 -4 -2 19 -25 30 -23 34 12 34 23 0 46 13 52 29 6 17 29 26 52 21 23 -4 41 0 41 9 0 28 186 82 197 57 3 -9 13 -12 22 -7z m-3352 -309 c112 -562 1869 -574 2124 -14 l47 104 1 -115 c1 -151 -53 -241 -214 -353 -106 -73 -307 -148 -332 -123 -15 15 -11 21 12 21 69 0 335 149 335 187 0 3 -67 -28 -150 -68 -473 -231 -1367 -163 -1731 132 -79 64 -77 61 14 -24 251 -234 969 -385 1295 -273 88 30 98 28 72 -15 -29 -46 -745 -41 -913 6 -414 117 -607 301 -607 577 0 58 33 29 47 -42z"/> <path d="M4434 6666 c-23 -6 -33 -21 -25 -39 6 -17 11 -45 12 -64 0 -25 12 -19 50 23 74 85 64 106 -37 80z"/> <path d="M4201 6467 c-22 -16 -50 -24 -60 -18 -19 12 -72 -65 -56 -81 4 -4 45 10 91 32 45 22 91 40 102 40 11 0 25 8 31 18 19 31 -65 38 -108 9z"/> <path d="M4222 6318 c-27 -22 -60 -35 -75 -30 -14 6 -55 -21 -91 -59 -35 -38 -75 -69 -88 -69 -13 0 -28 -24 -34 -54 l-10 -54 38 49 c20 27 37 42 38 33 1 -42 223 118 261 188 25 47 21 47 -39 -4z"/> <path d="M3932 6308 c-22 -56 -13 -128 16 -128 27 0 51 58 52 125 0 44 -51 46 -68 3z"/> <path d="M4721 5786 c0 -13 -28 -82 -61 -153 -33 -71 -60 -138 -60 -148 0 -10 -20 -37 -45 -60 -54 -51 -155 -93 -155 -65 0 39 -226 21 -323 -25 -171 -82 -283 -205 -356 -391 -42 -109 -1 -130 58 -29 18 33 20 32 20 -2 1 -26 28 -5 90 71 126 152 311 276 413 276 60 0 34 -26 -117 -116 -169 -102 -304 -214 -221 -185 32 12 56 12 60 1 7 -22 320 171 403 248 31 29 90 70 131 91 90 46 131 91 111 123 -9 15 -7 19 6 11 12 -7 32 15 45 52 53 143 77 235 62 235 -9 0 -26 20 -38 45 -12 25 -22 34 -23 21z"/> <path d="M4942 5514 c-3 -172 -75 -317 -198 -398 -37 -24 -43 -36 -22 -36 18 0 55 18 83 40 28 22 63 40 76 40 14 0 20 6 13 13 -8 7 -4 24 7 38 11 14 18 32 15 42 -2 9 12 60 33 112 30 78 33 111 16 180 l-20 85 -3 -116z"/> <path d="M8983 4957 c-2 -19 -14 -38 -28 -43 -20 -7 -20 -14 0 -35 33 -36 50 -14 40 54 -5 31 -10 42 -12 24z"/> <path d="M3957 4881 c-91 -90 -89 -113 4 -42 128 98 129 99 86 96 -21 -2 -62 -26 -90 -54z"/> <path d="M5130 4903 c-5 -5 -10 -30 -10 -55 0 -25 -12 -57 -27 -72 -15 -15 -33 -58 -41 -97 -8 -38 -26 -96 -41 -129 l-28 -60 -1 61 c-1 34 -21 82 -45 107 l-42 46 -36 -97 c-19 -53 -77 -205 -128 -337 -120 -312 -211 -659 -150 -570 18 25 20 24 15 -8 -8 -48 -78 -95 -112 -74 -59 36 72 458 257 825 57 111 57 113 13 102 -87 -21 -181 -162 -245 -365 -19 -60 -48 -125 -63 -143 -16 -19 -31 -46 -33 -60 -2 -15 -11 -38 -19 -51 -66 -106 23 -386 123 -386 12 0 3 -32 -21 -72 l-43 -72 69 36 c37 20 80 34 95 31 15 -3 22 3 15 14 -7 10 15 70 48 133 33 63 60 131 60 151 0 20 9 42 20 49 11 7 20 32 20 56 0 40 3 39 39 -14 l38 -58 22 88 c12 48 72 245 134 436 172 535 187 595 155 595 -16 0 -32 -4 -38 -10z"/> <path d="M3533 4739 c-28 -22 -90 -48 -137 -58 -75 -15 -57 -31 24 -22 48 5 158 67 169 95 13 35 5 33 -56 -15z"/> <path d="M3545 4337 c-33 -33 -300 -74 -326 -49 -19 17 -22 12 -14 -22 11 -44 -85 -101 -125 -76 -26 16 -81 -12 -68 -33 7 -11 -7 -25 -30 -31 -23 -6 -42 -19 -42 -28 0 -33 -58 -18 -99 26 -23 24 -41 33 -41 21 0 -12 14 -36 31 -54 29 -28 26 -31 -27 -31 -39 0 -70 -15 -90 -45 -27 -40 -35 -42 -75 -18 -40 24 -43 23 -32 -6 9 -23 3 -31 -22 -27 -19 3 -33 -4 -31 -17 3 -13 -20 -33 -50 -45 -30 -12 -67 -29 -84 -39 -86 -49 -125 -65 -135 -55 -6 6 -27 -8 -47 -31 -23 -25 -49 -37 -69 -29 -18 7 -58 -6 -89 -28 -31 -22 -66 -40 -78 -40 -12 0 -22 -14 -22 -32 0 -24 -12 -29 -50 -20 -38 10 -50 5 -50 -20 0 -25 -12 -29 -50 -20 -29 7 -50 4 -50 -8 0 -11 -11 -18 -25 -15 -14 3 -23 -7 -20 -21 4 -15 -3 -22 -13 -15 -11 6 -27 0 -36 -14 -28 -44 -166 -99 -166 -66 0 16 -9 34 -21 41 -13 9 -16 -5 -8 -37 14 -55 -60 -95 -113 -62 -14 9 -19 7 -12 -5 17 -28 -64 -111 -96 -99 -34 13 -74 -83 -74 -176 0 -65 -3 -69 -43 -49 l-43 21 41 -37 c24 -21 40 -57 38 -86 -5 -58 47 -200 73 -200 10 0 16 -7 13 -15 -3 -8 2 -17 12 -19 9 -2 38 -29 65 -60 26 -31 48 -48 48 -38 0 10 17 3 38 -16 29 -27 40 -29 48 -8 9 21 11 21 12 0 1 -15 11 -21 22 -14 11 7 20 3 20 -9 0 -11 7 -20 15 -18 55 12 234 -76 2551 -1251 462 -235 638 -275 739 -166 26 28 73 58 105 66 31 8 78 38 103 66 32 36 46 43 47 22 1 -27 3 -27 20 0 16 25 26 26 61 4 38 -24 40 -22 21 12 -17 32 -11 43 34 65 30 15 78 44 107 63 60 41 107 48 85 13 -9 -14 -5 -18 9 -9 13 8 23 25 23 38 0 26 222 154 268 154 15 0 33 14 40 31 8 23 21 26 45 12 26 -14 45 -5 80 37 27 32 76 61 117 69 38 7 70 20 70 28 0 8 63 46 140 83 77 37 140 75 140 84 0 9 12 16 28 16 15 0 38 13 50 28 13 15 54 34 91 40 37 7 73 27 79 45 7 18 25 26 42 20 17 -7 30 -5 30 3 0 28 117 62 128 37 5 -13 33 4 66 42 31 36 71 65 90 65 19 0 42 14 52 32 10 17 21 30 26 28 31 -15 178 46 178 74 0 18 5 28 11 22 6 -6 44 5 85 25 41 20 77 27 81 17 4 -10 23 2 43 28 21 26 76 59 124 74 47 16 91 33 96 40 30 33 118 57 127 34 6 -14 10 -11 11 8 2 35 151 52 171 20 14 -22 111 20 111 48 0 11 -43 40 -95 65 -195 93 -271 235 -148 280 44 16 66 51 41 66 -11 7 -21 32 -23 56 -2 24 -12 43 -23 43 -10 0 -13 6 -6 12 17 18 -37 68 -72 68 -16 0 -40 13 -54 30 -13 16 -31 25 -40 20 -8 -5 -20 8 -26 30 -7 27 -21 36 -42 28 -18 -7 -57 9 -93 40 -34 29 -71 47 -80 41 -10 -6 -13 3 -7 20 14 35 -22 43 -43 10 -9 -14 -25 -11 -48 10 -19 17 -40 25 -48 18 -7 -8 -13 -3 -13 10 0 13 -11 21 -25 18 -14 -3 -23 6 -20 20 6 31 -20 32 -49 3 -16 -16 -26 -11 -35 20 -9 27 -31 42 -61 42 -26 0 -50 7 -53 15 -18 40 -142 108 -161 89 -29 -29 -76 -7 -63 28 6 15 1 28 -12 28 -13 0 -17 11 -8 25 11 20 8 20 -17 0 -25 -21 -35 -20 -57 6 -19 23 -29 25 -41 7 -11 -19 -27 -17 -67 9 -29 19 -47 43 -42 52 6 10 -5 15 -24 12 -19 -3 -47 12 -62 34 -17 23 -42 35 -65 29 -24 -7 -33 -2 -25 11 9 14 1 17 -20 9 -24 -9 -33 -2 -33 27 0 33 -9 38 -53 26 -39 -9 -49 -6 -38 12 12 20 7 20 -27 2 -35 -19 -42 -17 -42 10 0 21 -11 29 -29 22 -18 -7 -25 -1 -19 15 7 18 -7 23 -46 18 -41 -5 -75 9 -124 53 -72 65 -103 80 -62 31 46 -55 -44 -9 -96 49 -28 32 -41 38 -33 16 12 -30 6 -32 -49 -13 -33 12 -72 18 -86 13 -24 -8 200 -129 974 -525 1181 -604 1210 -620 1210 -657 0 -14 -358 -208 -795 -432 -437 -224 -1152 -590 -1587 -814 -671 -345 -806 -407 -879 -407 -88 0 -963 437 -2599 1297 -291 153 -534 275 -538 271 -14 -13 106 -172 137 -182 17 -5 45 -17 61 -28 54 -33 239 -119 253 -117 7 1 18 -5 25 -15 17 -24 108 -81 262 -163 71 -38 166 -93 210 -120 44 -28 95 -54 113 -57 18 -3 68 -25 109 -50 42 -25 88 -47 103 -49 15 -2 57 -27 95 -55 37 -29 75 -52 85 -52 9 0 66 -29 126 -66 60 -36 116 -67 125 -68 28 -7 339 -169 417 -218 42 -26 86 -48 99 -48 12 0 46 -17 75 -38 29 -21 59 -36 67 -35 8 2 33 -13 56 -32 22 -19 48 -35 57 -35 9 0 123 -54 252 -120 208 -107 391 -168 363 -123 -6 9 3 16 19 16 20 0 29 -22 29 -75 0 -97 24 -111 66 -40 27 46 376 249 434 252 6 0 24 9 40 20 17 10 141 75 277 144 136 69 262 137 278 151 17 14 34 23 38 20 16 -12 46 -3 71 21 39 38 271 144 301 137 8 -2 15 6 15 18 0 25 135 85 159 70 9 -6 21 9 28 32 8 31 22 39 52 31 30 -7 52 4 74 38 18 27 47 47 65 45 37 -6 88 20 236 117 58 38 114 63 125 56 12 -7 21 -4 21 7 0 10 25 29 55 40 30 12 102 48 160 82 58 33 105 54 105 47 0 -7 16 2 35 19 35 31 177 99 260 124 25 8 45 22 45 32 0 11 11 19 25 19 14 0 57 21 95 47 107 73 146 79 177 30 38 -61 59 -48 -807 -487 -1006 -510 -1675 -852 -1700 -871 -75 -55 -684 -342 -729 -343 -58 -2 -583 261 -2301 1153 -203 106 -489 253 -634 326 l-263 133 -7 178 c-3 103 2 184 14 193 11 8 529 274 1150 591 1297 660 1152 582 1102 595 -21 6 -47 2 -57 -8z"/> <path d="M4518 2842 c48 -43 82 -85 76 -95 -5 -9 17 -17 51 -17 107 0 82 44 -69 118 l-146 71 88 -77z"/> <path d="M4060 2818 c148 -54 368 -82 336 -43 -12 15 -35 22 -51 16 -16 -6 -56 9 -90 33 -34 24 -56 33 -47 20 9 -15 2 -24 -18 -24 -18 0 -27 9 -20 20 8 13 -31 19 -104 19 l-116 -2 110 -39z"/> </g> </svg> 