<?xml version="1.0" standalone="no"?>
<!DOCTYPE svg PUBLIC "-//W3C//DTD SVG 20010904//EN"
 "http://www.w3.org/TR/2001/REC-SVG-20010904/DTD/svg10.dtd">
<svg version="1.0" xmlns="http://www.w3.org/2000/svg"
 width="1350.000000pt" height="1350.000000pt" viewBox="0 0 1350.000000 1350.000000"
 preserveAspectRatio="xMidYMid meet">
<metadata>
Created by potrace 1.10, written by Peter Selinger 2001-2011
</metadata>
<g transform="translate(0.000000,1350.000000) scale(0.100000,-0.100000)"
fill="#000000" stroke="none">
<path d="M6755 11420 c-11 -5 -45 -6 -75 -3 -63 6 -242 -35 -296 -68 -17 -10
-34 -16 -37 -13 -3 4 -25 -10 -48 -30 -24 -20 -46 -36 -49 -36 -4 0 -41 -40
-83 -89 -42 -49 -84 -92 -94 -95 -22 -8 -63 -86 -63 -122 0 -32 -13 -56 -66
-122 -41 -50 -43 -55 -37 -101 8 -70 -2 -101 -32 -101 -13 0 -28 6 -32 14 -4
8 -36 26 -71 40 -63 27 -64 27 -100 9 -20 -10 -50 -38 -66 -62 -28 -42 -29
-49 -27 -134 1 -50 8 -104 15 -121 7 -17 16 -56 20 -86 4 -30 13 -75 21 -100
7 -25 16 -57 19 -72 10 -44 26 -33 26 17 0 33 -5 47 -16 52 -15 5 -16 25 -10
177 3 94 6 192 6 218 0 36 4 50 19 58 28 14 42 6 86 -52 22 -28 47 -58 55 -67
56 -60 58 -65 52 -166 -3 -69 -2 -95 7 -95 14 0 56 40 63 61 4 12 12 12 54 1
52 -15 324 -36 333 -26 3 3 -2 12 -12 19 -13 9 -56 13 -149 13 -173 0 -188 17
-73 83 42 24 61 29 120 29 136 0 167 -21 172 -116 1 -36 7 -73 13 -84 8 -15 7
-27 -4 -49 -12 -23 -13 -34 -3 -60 10 -29 9 -33 -23 -66 -23 -24 -43 -35 -62
-35 -29 0 -35 -9 -18 -26 8 -8 6 -15 -6 -25 -13 -11 -57 -14 -181 -16 -140 -2
-172 -5 -224 -24 -51 -19 -62 -20 -70 -8 -22 35 3 82 54 102 9 3 17 14 17 24
1 49 148 99 320 109 115 7 152 16 113 28 -10 3 -75 12 -144 20 -95 12 -135 12
-160 4 -19 -6 -52 -17 -74 -24 -23 -8 -50 -14 -62 -14 -24 0 -33 -17 -33 -63
0 -18 -4 -38 -9 -46 -12 -18 -31 -5 -31 21 0 22 -5 43 -34 134 -9 29 -16 61
-16 72 0 11 -7 36 -15 55 -8 20 -15 52 -15 71 0 19 -4 37 -9 40 -29 18 -30
-171 -1 -244 11 -28 20 -67 20 -86 0 -20 7 -42 15 -51 12 -11 14 -27 9 -64 -5
-34 -2 -60 10 -89 9 -22 16 -60 16 -85 0 -43 -2 -45 -46 -67 -38 -18 -53 -34
-75 -78 -16 -30 -40 -68 -53 -83 -14 -15 -28 -36 -31 -46 -3 -10 -14 -26 -25
-36 -11 -10 -20 -24 -20 -31 0 -7 -6 -17 -14 -21 -23 -13 -137 -113 -183 -161
-24 -25 -54 -70 -69 -101 -36 -78 -36 -197 2 -319 22 -75 25 -96 19 -166 -3
-45 -13 -101 -22 -126 -29 -83 -57 -155 -65 -164 -4 -6 -8 -17 -8 -25 0 -9
-14 -36 -30 -61 -17 -25 -37 -67 -45 -94 -8 -27 -21 -56 -29 -65 -7 -9 -33
-52 -57 -96 -116 -215 -151 -275 -160 -275 -5 0 -16 -15 -25 -32 -10 -18 -34
-53 -55 -78 -21 -25 -57 -83 -80 -130 -37 -73 -43 -94 -43 -145 1 -49 7 -71
33 -118 22 -37 32 -66 29 -82 -5 -22 -2 -24 26 -22 26 2 32 -2 34 -22 2 -13
16 -43 30 -65 45 -69 52 -87 52 -126 0 -56 11 -100 25 -100 16 0 28 71 19 116
-9 51 7 64 80 64 33 1 79 7 101 15 22 8 48 15 57 15 25 0 100 41 126 69 17 19
22 36 22 77 0 49 -2 55 -30 69 -16 8 -33 15 -38 15 -10 0 -100 -58 -120 -77
-7 -7 -19 -13 -26 -13 -8 0 -19 -7 -26 -15 -7 -8 -24 -15 -39 -15 -14 -1 -37
-7 -51 -15 -14 -8 -46 -14 -71 -15 -41 0 -49 4 -77 39 -18 22 -32 44 -32 49 0
5 -7 15 -15 22 -8 7 -15 20 -15 30 0 10 -7 23 -15 30 -10 9 -15 31 -15 72 0
55 6 71 38 101 19 18 142 174 142 180 0 3 19 34 43 69 24 35 46 70 50 78 5 8
23 42 42 75 19 33 52 96 75 140 53 103 55 106 68 130 7 11 15 27 18 35 11 29
37 85 46 100 4 8 11 22 14 30 9 24 36 83 47 105 6 11 14 33 18 50 9 35 27 88
45 130 7 17 15 60 17 97 4 59 2 68 -14 73 -11 4 -19 13 -19 20 0 8 -7 34 -15
58 -9 26 -16 89 -17 153 -2 93 0 113 17 139 25 40 81 94 131 126 56 37 170
152 187 189 4 8 16 29 27 45 11 17 22 37 26 45 3 8 10 22 15 30 5 8 12 22 15
30 3 8 12 29 20 47 8 17 14 36 14 42 0 7 19 9 58 5 40 -4 67 -2 83 6 14 8 62
14 114 15 102 1 113 6 343 146 33 21 74 40 90 44 17 3 33 13 36 21 3 8 19 14
36 14 17 0 42 7 56 16 20 14 42 16 121 11 l95 -6 63 44 c34 24 65 41 69 38 11
-11 6 -47 -9 -67 -22 -29 -19 -98 6 -130 26 -34 39 -33 39 2 0 32 36 72 65 72
10 0 72 -34 138 -75 113 -71 147 -86 147 -66 0 10 -145 121 -158 121 -5 0 -31
22 -58 48 -27 26 -75 63 -106 81 -41 23 -58 39 -58 53 0 22 60 88 80 88 7 0
28 9 47 21 48 30 67 19 60 -33 -3 -22 -11 -44 -18 -49 -20 -12 18 -87 54 -106
17 -8 48 -28 70 -44 22 -16 49 -29 60 -29 16 0 11 9 -25 45 -25 25 -54 45 -65
45 -21 0 -60 57 -47 70 5 4 23 10 39 13 27 5 39 -3 113 -74 46 -43 92 -79 103
-79 10 0 19 3 19 6 0 14 -102 142 -152 190 -40 40 -63 53 -95 59 -62 10 -71
27 -38 71 15 19 39 41 54 47 14 6 29 16 32 21 4 5 27 7 51 4 44 -5 45 -4 57
28 10 29 25 44 77 81 27 20 77 43 93 43 22 0 91 -58 91 -76 0 -9 11 -30 24
-47 14 -18 30 -43 35 -57 6 -14 20 -38 31 -55 64 -98 74 -140 40 -170 -26 -23
-44 -14 -78 37 -15 24 -40 56 -55 72 -15 16 -27 37 -27 47 0 10 -9 20 -19 24
-11 3 -26 23 -35 45 -19 48 -51 60 -90 35 -14 -10 -26 -22 -26 -27 0 -6 -13
-8 -30 -4 -39 7 -50 -16 -27 -56 9 -17 17 -36 17 -43 0 -29 37 -93 78 -135 24
-25 48 -55 53 -68 5 -14 16 -22 26 -20 15 2 19 -6 21 -44 3 -43 1 -48 -27 -63
-19 -9 -33 -26 -37 -43 -11 -46 -48 -102 -70 -108 -17 -4 -21 -12 -19 -35 1
-16 4 -31 6 -34 3 -2 29 23 59 56 113 125 320 329 359 353 77 49 221 116 249
116 10 0 26 6 37 13 25 16 157 37 245 39 98 1 230 -22 270 -47 19 -12 51 -30
71 -39 77 -36 208 -189 247 -286 8 -19 20 -85 26 -146 7 -61 16 -116 20 -122
13 -21 34 -13 40 16 27 141 29 173 17 277 -13 118 -23 153 -46 161 -10 4 -15
20 -15 46 0 55 -15 78 -50 78 l-30 0 0 71 0 72 -25 -27 c-13 -14 -29 -26 -35
-26 -8 0 -11 -18 -8 -52 3 -51 2 -53 -24 -56 -36 -4 -68 14 -68 38 0 11 14 35
31 54 29 34 30 38 23 93 -4 32 -8 68 -8 80 -1 29 -41 73 -66 73 -11 0 -20 4
-20 9 0 5 -8 12 -18 15 -9 3 -32 19 -50 36 -48 43 -85 60 -133 60 -31 0 -50 6
-67 23 -21 20 -34 22 -120 23 -54 0 -122 6 -153 13 -53 11 -62 10 -137 -15
-75 -24 -82 -25 -103 -10 -40 28 -116 21 -191 -18 -37 -19 -82 -46 -101 -60
-27 -20 -45 -26 -87 -26 -64 0 -159 -42 -213 -95 -20 -19 -42 -35 -49 -36 -12
0 -67 -30 -135 -73 -16 -11 -37 -32 -46 -48 -10 -17 -24 -28 -37 -28 -14 0
-56 -35 -119 -100 -54 -55 -103 -100 -109 -100 -6 0 -19 -8 -29 -19 -20 -20
-55 -31 -119 -36 -22 -2 -71 -17 -107 -34 l-67 -30 -19 37 c-29 57 -43 284
-25 410 23 162 34 199 93 322 30 64 120 158 205 214 58 38 62 39 165 44 96 3
110 2 152 -20 68 -35 149 -100 184 -150 33 -46 75 -150 75 -184 0 -22 29 -54
48 -54 14 0 15 76 2 135 -20 90 -32 131 -41 140 -5 5 -9 16 -9 25 0 8 -7 28
-15 44 -8 15 -15 34 -15 41 0 22 -87 118 -114 125 -11 3 -27 20 -35 37 -12 24
-21 31 -35 27 -12 -4 -29 5 -50 25 -29 28 -34 30 -45 17 -10 -12 -9 -23 5 -55
16 -36 20 -39 50 -34 26 4 33 2 39 -16 3 -12 15 -21 26 -21 11 0 24 -11 31
-25 6 -13 19 -27 30 -30 22 -8 24 -43 2 -52 -8 -3 -25 4 -38 16 -12 11 -28 21
-34 21 -7 0 -38 9 -70 19 -84 28 -196 38 -224 19 -13 -9 -39 -19 -58 -23 -19
-4 -49 -18 -66 -31 -17 -13 -43 -24 -57 -24 -18 0 -28 -7 -32 -22 -12 -40 -75
-97 -75 -68 0 5 -21 40 -46 78 -42 61 -53 71 -99 87 -54 18 -112 17 -173 -3
-31 -10 -32 -10 -26 16 9 43 58 78 116 85 42 5 60 2 112 -23 33 -16 85 -52
114 -80 58 -56 77 -63 68 -26 -4 18 -1 28 11 36 16 9 12 16 -34 59 -46 43 -60
50 -108 56 -30 4 -65 5 -79 1 -15 -4 -28 0 -35 8 -10 11 -6 20 16 40 24 22 37
26 93 26 64 0 66 1 77 30 11 28 14 30 68 30 31 0 69 -7 84 -15 31 -16 41 -12
41 17 0 26 34 22 127 -13 13 -5 25 -4 28 1 10 15 61 12 75 -5 12 -14 60 -22
60 -10 0 3 -12 17 -27 30 -21 18 -40 24 -74 25 -26 0 -63 7 -82 15 -40 16 -81
18 -112 5z m-337 -382 c17 -11 32 -26 32 -34 0 -8 10 -14 25 -14 14 0 25 -4
25 -10 0 -5 6 -10 14 -10 7 0 20 -10 29 -22 13 -21 13 -27 -9 -70 -16 -31 -31
-48 -43 -48 -10 0 -44 26 -77 59 -67 67 -103 81 -190 76 -69 -3 -111 -25 -120
-61 -11 -44 0 -47 126 -40 113 7 119 6 174 -20 40 -19 58 -34 62 -51 10 -39
-11 -51 -45 -25 -19 14 -32 18 -36 11 -4 -6 2 -13 12 -15 31 -8 56 -59 43 -84
-8 -16 -17 -19 -33 -14 -30 9 -84 51 -103 80 -9 13 -21 21 -28 17 -6 -4 -54
-8 -106 -9 -78 -1 -101 -5 -130 -22 -19 -12 -37 -32 -40 -44 -3 -12 -10 -23
-16 -25 -11 -4 -34 38 -34 62 0 25 44 84 72 95 17 8 29 22 33 41 4 16 11 29
17 29 7 0 8 14 5 37 -10 59 42 119 118 136 46 11 190 -6 223 -25z m1731 -322
c44 -23 63 -60 60 -117 -2 -34 2 -53 10 -59 15 -9 31 -93 23 -122 -6 -23 -51
-48 -86 -48 -14 0 -28 -4 -31 -10 -9 -14 -41 -12 -53 3 -6 7 -16 44 -21 83
-19 127 -21 135 -57 156 -51 30 -55 77 -6 78 7 0 20 4 30 9 33 17 87 40 95 40
4 1 21 -6 36 -13z m252 -29 c23 -19 26 -29 25 -72 -1 -27 -6 -62 -10 -77 -5
-16 -4 -41 3 -58 16 -48 1 -73 -53 -88 -61 -16 -63 -16 -76 8 -8 14 -8 32 0
59 25 96 29 132 11 138 -39 14 -76 85 -54 106 3 4 34 7 67 7 48 -1 67 -5 87
-23z m-2106 -17 c37 0 93 -28 111 -55 9 -15 13 -42 11 -85 -3 -56 -7 -64 -28
-72 -17 -7 -33 -4 -59 10 -95 52 -273 50 -383 -4 -30 -14 -40 -16 -46 -5 -15
24 2 63 50 112 27 28 49 56 49 62 0 7 7 3 15 -7 13 -17 18 -18 40 -8 14 7 37
12 50 12 15 0 31 11 45 29 24 35 54 42 92 24 15 -7 39 -13 53 -13z m1586 9
c18 -13 29 -29 29 -44 0 -13 4 -26 9 -29 5 -3 19 -38 32 -78 12 -40 27 -78 32
-85 16 -22 26 -85 16 -110 -7 -19 -15 -24 -36 -21 -33 4 -76 62 -67 90 4 14 0
21 -15 25 -11 3 -28 16 -37 30 -12 19 -18 22 -24 13 -10 -16 -3 -37 19 -65 9
-11 25 -37 36 -58 17 -35 18 -41 4 -65 -11 -21 -22 -27 -48 -27 -32 0 -35 3
-50 52 -9 28 -20 55 -24 59 -4 4 -7 17 -7 29 0 11 -4 25 -9 31 -5 5 -12 26
-15 47 -8 41 1 45 48 27 23 -8 26 -7 32 15 8 32 -13 58 -40 52 -12 -3 -41 -13
-65 -22 -53 -19 -71 -14 -71 20 0 25 46 63 98 79 12 4 22 12 22 17 0 5 6 9 14
9 7 0 19 7 26 15 18 21 57 19 91 -6z m624 -12 c11 -8 34 -17 51 -20 17 -3 42
-16 56 -28 22 -20 24 -27 16 -51 -6 -18 -17 -28 -29 -28 -42 0 -43 -92 -1 -98
28 -4 28 -29 0 -54 -28 -24 -91 -20 -120 9 l-20 21 21 28 c11 16 24 50 27 76
6 41 3 51 -20 78 -25 31 -33 60 -19 73 9 10 16 9 38 -6z m190 -88 c4 -5 18
-14 31 -19 13 -5 29 -21 35 -34 10 -21 8 -30 -19 -66 -24 -34 -29 -48 -25 -76
7 -43 -10 -64 -53 -64 -32 0 -34 2 -34 35 0 22 8 43 20 55 28 28 35 67 21 118
-11 43 -8 62 9 62 5 0 12 -5 15 -11z m-1241 -204 c8 -8 27 -15 43 -15 36 0 53
-16 53 -50 0 -17 12 -38 33 -58 61 -60 66 -68 69 -112 3 -40 0 -45 -26 -58
-28 -14 -30 -13 -57 19 -36 43 -159 261 -159 282 0 12 28 8 44 -8z m1446 -134
c5 -11 10 -31 10 -44 0 -13 11 -36 25 -51 25 -27 33 -56 16 -56 -5 0 -12 8
-15 18 -4 10 -26 34 -51 52 -48 36 -59 71 -27 89 24 15 30 14 42 -8z m-2786
-330 c9 -13 -50 -31 -101 -31 -46 0 -50 14 -9 30 28 12 103 12 110 1z m-1190
-2730 c3 -5 -1 -11 -9 -15 -18 -6 -45 2 -45 15 0 12 47 12 54 0z"/>
<path d="M8126 10552 c-10 -10 -6 -51 5 -58 6 -3 22 4 35 18 l24 24 -29 11
c-17 6 -32 8 -35 5z"/>
<path d="M6120 10607 c0 -3 15 -14 33 -25 25 -15 43 -18 86 -13 48 5 52 8 37
20 -16 13 -156 30 -156 18z"/>
<path d="M6770 11322 c0 -26 35 -103 55 -122 38 -36 74 -9 61 45 -10 38 -116
109 -116 77z"/>
<path d="M6590 11305 c-7 -9 -11 -17 -9 -18 2 -2 15 -10 29 -19 14 -8 39 -36
55 -61 17 -29 40 -50 58 -57 17 -5 32 -9 34 -7 2 2 0 25 -3 51 -6 38 -13 52
-43 75 -28 22 -89 51 -106 51 -2 0 -8 -7 -15 -15z"/>
<path d="M6917 11283 c6 -40 28 -73 48 -73 7 0 20 9 31 21 19 21 19 21 -21 55
-53 45 -65 44 -58 -3z"/>
<path d="M6072 10079 c-59 -23 36 -46 133 -32 l60 9 -70 11 c-38 6 -77 14 -85
16 -8 3 -25 2 -38 -4z"/>
<path d="M5955 10070 c-3 -5 3 -10 14 -10 12 0 21 5 21 10 0 6 -6 10 -14 10
-8 0 -18 -4 -21 -10z"/>
<path d="M6660 9984 c-19 -7 -44 -13 -56 -13 -34 -1 -36 -13 -8 -42 22 -23 26
-35 21 -61 -6 -40 2 -88 14 -88 5 0 9 8 9 18 0 17 73 102 88 102 11 0 29 32
37 68 7 32 6 32 -32 31 -21 -1 -54 -7 -73 -15z"/>
<path d="M6770 9899 c0 -13 -7 -33 -15 -43 -8 -11 -15 -28 -15 -39 0 -15 5
-18 25 -13 14 4 25 2 25 -3 0 -14 66 -81 80 -81 7 0 10 7 7 15 -5 11 0 13 26
8 18 -3 37 -10 43 -14 30 -23 170 -89 202 -95 l37 -7 -25 20 c-14 11 -43 30
-65 41 -71 38 -146 101 -127 109 23 9 12 20 -25 27 -25 4 -52 19 -79 45 -23
22 -53 43 -68 47 -22 5 -26 3 -26 -17z"/>
<path d="M7644 9897 c-28 -17 -123 -108 -136 -130 -9 -17 -7 -17 13 -6 13 6
32 21 43 31 12 11 45 38 74 59 51 39 65 59 40 59 -7 -1 -22 -6 -34 -13z"/>
<path d="M7680 9809 c-82 -63 -150 -129 -150 -146 0 -19 23 -7 152 80 63 42
120 77 126 77 12 0 23 26 15 34 -4 3 -22 6 -42 5 -27 0 -52 -12 -101 -50z"/>
<path d="M7080 9831 c0 -20 100 -91 127 -91 23 0 14 14 -24 40 -20 14 -48 35
-61 48 -30 27 -42 28 -42 3z"/>
<path d="M7854 9763 c-21 -14 -72 -49 -112 -76 -41 -28 -76 -56 -79 -64 -3 -7
-11 -13 -18 -13 -20 0 -30 -21 -15 -30 10 -6 99 33 135 60 13 9 121 69 160 88
41 20 40 19 20 42 -24 27 -45 25 -91 -7z"/>
<path d="M6635 9730 c-8 -14 14 -61 53 -112 30 -39 42 -48 68 -48 29 0 74 -11
119 -30 11 -5 45 -16 75 -25 30 -9 68 -21 85 -26 47 -14 54 7 9 27 -21 9 -52
23 -69 30 -16 7 -42 15 -56 18 -29 6 -179 104 -217 141 -25 25 -59 38 -67 25z"/>
<path d="M6360 9700 c-8 -5 -29 -10 -46 -10 -23 0 -36 -7 -48 -25 -21 -32 -66
-35 -66 -5 0 11 -3 20 -7 20 -28 -1 -83 -84 -83 -124 0 -37 36 -35 79 5 20 18
51 33 76 38 24 5 59 17 77 28 19 11 50 23 69 27 29 5 69 35 69 51 0 9 -105 5
-120 -5z"/>
<path d="M6594 9689 c-4 -7 -7 -43 -7 -81 0 -49 5 -73 17 -86 9 -10 16 -23 16
-29 0 -17 92 -89 140 -108 8 -4 33 -14 55 -23 30 -13 67 -17 160 -15 107 1
125 4 170 26 54 28 125 91 125 112 0 8 8 21 17 31 16 16 16 16 -7 9 -69 -20
-100 -39 -94 -57 4 -13 0 -18 -12 -18 -10 0 -25 -7 -35 -16 -32 -29 -135 -39
-214 -21 -122 27 -160 45 -229 111 -62 60 -66 66 -72 120 -7 54 -15 68 -30 45z"/>
<path d="M8005 9670 c-4 -6 -17 -16 -28 -21 -12 -5 -35 -18 -52 -29 -32 -20
-223 -116 -265 -132 -45 -18 -134 -31 -194 -29 l-59 2 6 -30 c9 -42 -9 -78
-44 -90 -16 -5 -29 -14 -29 -20 0 -5 -21 -33 -46 -63 -50 -59 -99 -143 -116
-202 -11 -34 -10 -40 7 -52 10 -8 27 -14 38 -14 15 0 18 5 15 25 -7 33 8 111
24 132 7 9 42 44 77 78 75 73 184 131 291 155 19 4 48 13 63 19 17 7 98 11
209 11 108 0 221 6 282 15 55 8 172 19 259 23 87 5 163 14 168 19 18 18 -16
22 -213 25 -139 2 -190 0 -199 -9 -18 -18 -39 -16 -46 5 -4 9 -18 28 -31 41
-25 23 -25 23 -41 3 -22 -27 -70 -39 -181 -46 -73 -4 -90 -2 -75 6 11 6 22 14
25 18 3 3 38 23 78 43 76 38 119 46 140 25 9 -9 12 -9 12 1 0 24 -23 91 -31
91 -4 0 -14 3 -22 6 -8 3 -18 0 -22 -6z"/>
<path d="M5957 9618 c-38 -44 -48 -78 -22 -78 8 0 15 9 15 21 0 11 12 36 26
55 39 50 24 51 -19 2z"/>
<path d="M6482 9588 c-7 -7 -12 -19 -12 -28 0 -24 -11 -32 -27 -18 -7 6 -17 8
-21 4 -4 -4 0 -12 9 -17 13 -7 15 -17 9 -46 -3 -21 -12 -48 -19 -61 -13 -24
-5 -92 10 -92 5 0 11 12 14 28 3 15 10 41 16 57 22 61 47 185 37 185 -2 0 -9
-5 -16 -12z"/>
<path d="M6353 9481 c-28 -28 -60 -51 -70 -51 -11 0 -24 -5 -31 -12 -10 -10
-19 -8 -42 5 l-30 18 -70 -71 c-38 -39 -74 -79 -80 -90 -17 -31 10 -25 56 13
59 50 89 66 157 87 74 23 172 102 166 134 -3 16 -13 10 -56 -33z"/>
<path d="M5947 9477 c-22 -34 -9 -133 17 -124 12 4 29 113 21 135 -7 19 -21
15 -38 -11z"/>
<path d="M7120 9480 c20 -13 40 -13 40 0 0 6 -12 10 -27 10 -22 0 -25 -2 -13
-10z"/>
<path d="M8550 9400 c-103 -12 -200 -29 -220 -40 -10 -6 -34 -10 -52 -10 -18
-1 -44 -7 -58 -15 -14 -8 -35 -14 -47 -15 -22 0 -67 -17 -126 -46 -16 -8 -35
-14 -42 -14 -13 0 -36 -9 -120 -45 -16 -7 -41 -16 -55 -18 -30 -6 -103 -32
-147 -52 -17 -8 -42 -15 -56 -15 -13 0 -30 -7 -37 -15 -7 -8 -27 -17 -46 -21
-19 -3 -39 -15 -45 -25 -5 -11 -19 -19 -29 -19 -11 0 -29 -9 -40 -20 -11 -11
-27 -20 -36 -20 -8 0 -12 -4 -9 -10 3 -5 17 -10 31 -10 32 0 31 -13 -3 -36
-59 -39 -80 -48 -133 -53 -86 -9 -56 -26 45 -26 76 0 96 4 126 23 39 23 78 29
95 12 13 -13 126 -1 118 11 -3 5 -23 9 -44 9 -21 0 -42 5 -45 11 -12 18 25 47
68 53 24 4 57 15 74 26 17 10 49 22 70 26 21 3 47 15 58 25 11 9 72 36 135 59
63 23 129 47 145 55 42 19 103 26 107 13 6 -17 73 11 148 59 59 39 100 54 100
37 0 -4 -10 -23 -22 -43 -13 -20 -21 -44 -20 -54 3 -15 -1 -17 -16 -13 -16 6
-19 3 -14 -19 2 -14 0 -25 -5 -25 -10 0 -49 -32 -121 -100 -23 -22 -46 -40
-50 -40 -13 0 -170 -66 -184 -77 -7 -6 -26 -13 -42 -17 -23 -6 -27 -9 -15 -17
21 -13 45 -11 59 6 7 8 25 15 41 15 15 0 34 7 43 15 8 8 22 15 31 15 8 0 18 7
21 15 4 8 14 15 24 15 10 0 25 7 34 15 8 8 24 15 35 15 12 0 21 4 21 8 0 4 13
12 28 18 16 6 67 55 114 110 118 136 225 244 243 244 23 0 18 17 -7 24 -25 6
-34 6 -128 -4z"/>
<path d="M6397 9313 c-4 -3 -7 -13 -7 -21 0 -9 -6 -23 -14 -31 -19 -22 -32
-85 -16 -79 11 3 35 57 56 121 5 17 -6 23 -19 10z"/>
<path d="M7170 9272 c0 -5 -19 -16 -42 -26 -24 -10 -56 -25 -72 -32 -16 -8
-40 -14 -53 -14 -12 0 -23 -4 -23 -9 0 -5 -12 -14 -27 -20 -39 -14 -57 -31
-77 -69 -17 -33 -17 -34 18 -103 20 -39 36 -82 36 -96 0 -26 -48 -80 -123
-136 -25 -19 -37 -36 -37 -53 0 -13 -7 -36 -16 -49 -9 -14 -12 -25 -8 -25 8 0
87 63 171 137 18 15 41 28 52 28 33 1 35 12 11 61 -22 48 -34 108 -34 176 0
29 7 46 33 72 40 41 104 69 121 52 9 -8 14 -8 17 1 2 6 20 32 39 57 36 48 40
56 24 56 -5 0 -10 -4 -10 -8z"/>
<path d="M6812 9125 c-31 -32 -33 -39 -37 -119 -3 -54 -1 -87 6 -91 18 -12 23
3 30 86 5 52 14 91 28 115 34 57 23 61 -27 9z"/>
<path d="M7850 9040 c0 -5 16 -10 35 -10 19 0 35 5 35 10 0 6 -16 10 -35 10
-19 0 -35 -4 -35 -10z"/>
<path d="M6480 8985 c-14 -7 -38 -16 -53 -20 -17 -3 -62 -39 -115 -93 -99 -99
-122 -126 -168 -198 -38 -59 -74 -93 -169 -156 -39 -25 -81 -58 -94 -72 -14
-14 -30 -26 -37 -26 -21 0 -226 -215 -293 -306 -15 -22 -50 -64 -77 -94 -27
-30 -74 -86 -104 -125 -30 -38 -70 -87 -90 -108 -19 -21 -39 -46 -44 -55 -5
-10 -12 -19 -15 -22 -4 -3 -22 -25 -41 -50 -19 -25 -40 -49 -46 -55 -17 -15
-25 -45 -12 -45 14 0 103 90 179 181 170 204 501 539 532 539 11 0 17 8 17 23
0 19 12 29 55 51 37 18 63 24 80 20 22 -5 25 -3 25 19 0 47 17 74 49 80 18 4
34 15 37 24 9 27 22 55 44 88 28 44 48 78 58 100 11 23 164 178 212 215 41 32
111 70 127 70 7 0 13 7 13 15 0 19 -37 19 -70 0z"/>
<path d="M7740 8920 c-15 -10 -13 -10 35 -10 3 0 5 3 6 8 0 11 -25 13 -41 2z"/>
<path d="M8249 8913 c-38 -28 -86 -53 -102 -53 -8 0 -20 -7 -27 -15 -7 -8 -24
-15 -39 -15 -15 0 -32 -5 -38 -11 -24 -24 -392 -50 -430 -31 -27 13 -235 -9
-241 -26 -2 -8 32 -49 77 -92 45 -42 81 -84 81 -93 0 -8 7 -20 15 -27 9 -7 15
-29 15 -51 0 -40 13 -52 24 -23 13 33 5 77 -20 109 -33 43 -64 104 -64 126 0
8 11 21 25 27 33 15 215 15 252 0 36 -14 144 -10 163 7 16 14 58 21 190 31 80
6 89 5 138 -20 l52 -26 6 26 c6 25 -2 132 -13 160 -7 19 -35 18 -64 -3z"/>
<path d="M6590 8713 c-8 -3 -19 -12 -23 -19 -4 -8 -17 -14 -27 -14 -11 0 -20
-7 -20 -15 0 -21 26 -19 47 4 10 10 27 20 37 22 11 2 19 8 19 14 -2 12 -14 15
-33 8z"/>
<path d="M8030 8673 c0 -9 141 -43 175 -43 11 0 43 -9 70 -19 40 -15 51 -24
53 -45 2 -14 7 -26 12 -26 12 0 25 110 14 120 -12 10 -324 23 -324 13z"/>
<path d="M6468 8653 c-21 -5 -24 -23 -5 -23 6 0 19 -5 27 -10 13 -8 12 -11 -4
-23 -14 -10 -16 -16 -7 -21 7 -5 20 -1 30 8 10 9 25 16 33 16 26 0 48 11 42
21 -3 5 -16 9 -28 9 -13 0 -29 7 -36 15 -13 15 -21 16 -52 8z"/>
<path d="M6590 8640 c0 -5 9 -10 19 -10 11 0 23 5 26 10 4 6 -5 10 -19 10 -14
0 -26 -4 -26 -10z"/>
<path d="M6375 8606 c-50 -23 -83 -51 -73 -62 6 -6 85 34 94 47 3 5 14 9 25 9
10 0 19 7 19 15 0 20 -5 19 -65 -9z"/>
<path d="M6820 8611 c-19 -10 -50 -22 -67 -25 -37 -8 -64 1 -42 15 7 4 10 11
6 16 -4 4 -17 2 -27 -5 -11 -7 -33 -12 -49 -12 -16 0 -42 -7 -57 -15 -16 -8
-37 -15 -47 -15 -10 0 -25 -7 -33 -15 -10 -9 -25 -12 -45 -8 -22 4 -29 2 -27
-8 2 -7 -6 -15 -17 -17 -11 -2 -76 -61 -145 -132 -103 -104 -128 -137 -143
-180 -10 -28 -16 -54 -13 -57 7 -7 86 27 86 37 0 4 33 24 74 44 l75 38 103 -7
c95 -7 109 -5 157 15 69 30 126 96 149 172 21 67 52 98 72 73 11 -13 17 -8 41
34 16 28 29 55 29 61 0 16 -42 12 -80 -9z m-112 -128 c4 -40 -28 -104 -65
-129 -33 -23 -98 -44 -134 -44 -37 0 -95 26 -103 45 -21 55 10 83 149 138 47
19 79 25 120 23 26 -1 30 -5 33 -33z"/>
<path d="M8110 8522 c8 -5 44 -16 80 -26 36 -9 87 -28 113 -42 46 -24 50 -24
62 -8 9 13 10 26 3 46 -6 15 -11 28 -11 29 -13 6 -258 7 -247 1z"/>
<path d="M6810 8423 c-1 -10 -9 -36 -20 -58 -11 -22 -19 -46 -20 -53 0 -16
-31 -65 -47 -75 -15 -10 -17 -27 -3 -27 33 0 110 136 110 194 0 35 -20 53 -20
19z"/>
<path d="M7890 8347 c0 -30 7 -76 15 -103 8 -27 15 -80 15 -119 0 -38 5 -99
11 -135 7 -36 11 -110 10 -165 -3 -301 -1 -708 5 -910 8 -255 8 -288 4 -525
-4 -211 22 -461 52 -503 11 -16 17 -35 14 -43 -3 -9 1 -25 9 -37 8 -12 15 -30
15 -40 0 -10 11 -33 24 -50 13 -18 31 -48 39 -68 8 -20 31 -51 51 -69 35 -33
49 -81 27 -95 -5 -3 -12 -18 -16 -35 -3 -16 -15 -46 -24 -67 -26 -54 -34 -83
-23 -83 16 0 52 68 52 98 1 38 44 107 57 90 13 -17 32 -93 35 -142 4 -52 24
-57 32 -9 22 138 -7 220 -118 326 -53 51 -58 63 -86 209 -5 27 -12 54 -17 60
-10 16 -30 118 -43 213 -5 39 -14 86 -19 105 -15 49 -14 128 4 186 8 27 15 59
15 71 0 12 6 34 14 50 8 15 22 55 32 88 9 33 23 74 31 92 7 17 13 40 13 51 0
11 6 33 14 49 21 42 46 125 46 153 1 14 7 34 15 44 8 11 15 35 15 53 0 18 4
41 9 51 18 36 51 158 51 192 1 19 7 46 15 60 8 14 14 49 15 78 0 31 7 63 16
77 13 20 15 41 11 97 -5 62 -3 76 15 97 16 21 18 35 13 81 -3 30 -1 77 5 104
8 37 8 57 -1 77 -9 23 -8 38 5 75 20 60 20 98 1 114 -14 12 -14 15 0 30 19 21
21 139 3 144 -30 8 -300 37 -305 32 -11 -10 9 -26 34 -26 63 0 255 -76 248
-98 -3 -8 -5 -25 -5 -39 0 -24 -2 -25 -57 -20 -32 2 -87 11 -123 20 -36 8 -67
13 -69 12 -8 -9 12 -24 40 -30 41 -9 162 -71 181 -92 19 -22 28 -67 17 -85
-10 -16 -70 -12 -107 8 -29 15 -72 19 -72 7 0 -5 21 -20 48 -35 26 -14 64 -41
85 -60 30 -27 38 -41 40 -73 2 -39 1 -40 -28 -37 -16 1 -39 7 -50 12 -65 29
-119 50 -131 50 -28 0 -13 -16 48 -50 33 -19 79 -52 100 -72 34 -33 39 -43 36
-75 -3 -33 -7 -38 -30 -41 -16 -2 -48 8 -77 23 -81 44 -89 26 -14 -30 87 -65
104 -90 95 -135 -10 -47 -38 -50 -107 -11 -30 17 -57 31 -60 31 -14 0 -1 -22
32 -52 91 -82 93 -85 93 -126 0 -61 -20 -71 -80 -40 -55 29 -67 17 -24 -23 14
-13 34 -37 44 -54 16 -26 17 -37 8 -74 l-11 -43 -43 7 -44 6 21 -35 c12 -20
25 -39 30 -42 10 -6 12 -54 3 -78 -4 -10 -18 -16 -36 -16 -25 0 -29 -3 -22
-17 4 -10 9 -39 12 -65 3 -38 0 -48 -15 -57 -13 -6 -24 -30 -33 -68 -17 -74
-23 -80 -46 -46 -18 26 -19 47 -15 363 9 837 -3 1139 -47 1193 -6 7 -14 36
-18 65 -9 68 -24 67 -24 -1z"/>
<path d="M6960 8375 c0 -8 5 -15 10 -15 6 0 10 7 10 15 0 8 -4 15 -10 15 -5 0
-10 -7 -10 -15z"/>
<path d="M6930 8305 c0 -14 5 -25 10 -25 6 0 10 11 10 25 0 14 -4 25 -10 25
-5 0 -10 -11 -10 -25z"/>
<path d="M5961 8235 c-13 -14 -18 -25 -12 -25 16 0 61 30 61 41 0 17 -25 9
-49 -16z"/>
<path d="M6950 8194 c-25 -18 -50 -34 -55 -34 -6 0 -29 -18 -50 -40 -21 -22
-45 -40 -51 -40 -7 0 -14 -4 -16 -8 -1 -4 -28 -23 -58 -42 -51 -31 -61 -34
-140 -34 -47 -1 -94 3 -105 8 -19 8 -19 9 4 15 14 4 26 11 28 17 6 19 -202 26
-251 9 -22 -8 -53 -15 -67 -15 -14 0 -34 -7 -45 -15 -10 -8 -24 -15 -31 -15
-7 0 -32 -13 -56 -30 -25 -16 -48 -30 -52 -30 -23 0 -285 -239 -285 -260 0 -6
-4 -10 -9 -10 -5 0 -19 -19 -30 -42 -30 -65 -81 -180 -93 -208 -6 -14 -17 -39
-25 -56 -8 -17 -13 -42 -11 -55 2 -18 17 5 61 93 31 64 57 119 57 122 0 18 70
114 128 174 80 84 227 202 251 202 9 0 22 5 29 12 14 14 123 57 173 67 19 4
41 11 48 15 15 10 137 -11 215 -35 72 -23 101 -24 185 -3 90 23 115 37 186
108 124 123 164 204 65 130z"/>
<path d="M6621 8201 c-20 -13 3 -23 34 -15 14 3 25 10 25 15 0 11 -41 11 -59
0z"/>
<path d="M7567 8203 c-4 -3 -7 -32 -7 -63 0 -34 -6 -64 -15 -76 -8 -10 -15
-38 -15 -61 0 -23 -7 -48 -15 -57 -8 -8 -15 -28 -15 -44 0 -16 -7 -35 -15 -42
-8 -7 -15 -23 -15 -35 0 -12 -7 -28 -15 -35 -8 -7 -15 -16 -15 -21 0 -16 -71
-103 -131 -161 -33 -32 -84 -69 -114 -84 -30 -14 -57 -29 -60 -35 -4 -5 -19
-9 -34 -9 -16 0 -34 -6 -40 -14 -10 -11 -35 -14 -114 -12 -56 2 -126 1 -156
-2 l-55 -5 50 -13 c61 -16 190 -17 269 -2 33 6 75 11 94 10 71 -2 250 152 312
269 107 199 148 336 134 445 -6 51 -13 63 -28 47z"/>
<path d="M5774 8127 c-33 -34 -87 -96 -120 -137 -32 -41 -65 -81 -71 -88 -24
-25 -100 -127 -126 -168 -14 -22 -31 -47 -39 -55 -7 -8 -38 -45 -68 -84 -30
-38 -61 -75 -69 -81 -15 -12 -6 -74 11 -74 6 0 17 -8 24 -17 13 -17 13 -17 14
2 0 11 -4 26 -9 34 -22 34 33 81 62 52 20 -20 35 -11 65 42 17 28 41 63 54 77
13 14 41 47 63 75 45 57 223 235 234 235 5 0 30 20 56 43 32 30 44 46 36 51
-7 4 -18 3 -25 -3 -7 -6 -34 -22 -60 -36 -37 -20 -46 -21 -46 -9 0 24 29 73
50 84 11 6 20 16 20 22 0 6 7 19 15 28 13 14 13 21 2 43 l-13 25 -60 -61z"/>
<path d="M6462 8181 c-20 -12 9 -21 68 -21 59 0 74 15 22 24 -50 8 -74 7 -90
-3z"/>
<path d="M6020 8110 c0 -5 6 -10 14 -10 8 0 18 5 21 10 3 6 -3 10 -14 10 -12
0 -21 -4 -21 -10z"/>
<path d="M5960 8080 c0 -13 11 -13 30 0 12 8 11 10 -7 10 -13 0 -23 -4 -23
-10z"/>
<path d="M6315 7901 c-33 -10 -69 -21 -80 -25 -65 -25 -102 -41 -115 -52 -8
-6 -33 -21 -55 -32 -73 -37 -179 -145 -218 -222 -31 -61 -33 -70 -17 -70 9 0
47 31 83 70 37 38 86 85 110 103 45 34 65 51 92 75 18 16 173 97 205 107 13 4
30 14 38 21 7 8 24 14 37 14 32 0 40 16 12 24 -26 7 -18 8 -92 -13z"/>
<path d="M6435 7804 c-27 -20 -59 -39 -71 -44 -11 -5 -51 -27 -88 -49 -36 -23
-70 -41 -75 -41 -5 0 -16 -6 -23 -12 -7 -7 -40 -31 -73 -53 -33 -22 -65 -44
-71 -50 -6 -5 -22 -17 -34 -25 -46 -30 -106 -100 -87 -100 11 0 79 38 130 72
39 27 64 37 77 33 14 -5 30 5 59 34 22 23 47 41 54 41 8 0 21 7 28 16 7 9 22
20 34 25 68 32 205 150 205 178 0 17 -11 13 -65 -25z"/>
<path d="M6582 7618 c-7 -7 -12 -17 -12 -23 0 -14 77 -51 86 -42 6 6 -46 77
-56 77 -4 0 -11 -5 -18 -12z"/>
<path d="M6483 7423 c-17 -2 -37 -11 -43 -19 -7 -8 -21 -14 -31 -14 -11 0 -37
-11 -59 -25 -22 -14 -43 -25 -47 -25 -3 0 -14 -6 -22 -14 -9 -7 -41 -21 -71
-32 -30 -10 -62 -23 -70 -29 -8 -5 -31 -18 -50 -28 -20 -10 -53 -33 -73 -52
-21 -19 -43 -35 -50 -35 -7 0 -28 -14 -47 -30 -44 -37 -49 -42 -80 -61 -14 -9
-47 -39 -75 -66 -63 -63 -113 -99 -147 -107 -14 -3 -33 -9 -42 -12 -11 -4 -16
-1 -16 11 0 23 -13 17 -96 -43 -138 -99 -298 -142 -408 -110 -82 24 -70 38 33
38 126 0 169 19 363 163 9 6 26 19 38 27 12 8 48 34 80 58 32 24 78 53 102 66
65 34 64 80 -3 78 -23 0 -44 -12 -73 -40 -23 -21 -70 -63 -106 -93 -35 -30
-85 -73 -110 -96 -25 -23 -72 -57 -105 -75 -56 -30 -67 -32 -160 -32 -107 -1
-154 15 -179 59 -6 11 -12 22 -14 25 -2 2 -7 -2 -11 -9 -7 -11 -13 -11 -32 -1
-13 7 -28 19 -32 26 -11 18 -27 18 -27 0 0 -18 103 -122 128 -130 10 -4 23
-21 30 -39 7 -18 27 -44 44 -58 32 -23 38 -24 190 -22 146 2 160 4 190 25 39
27 128 118 128 131 0 5 10 7 22 5 19 -3 24 -15 40 -88 10 -47 24 -101 31 -120
6 -19 12 -75 12 -125 1 -104 14 -227 26 -246 20 -32 50 11 122 172 16 35 35
76 43 91 8 14 14 40 14 58 0 17 5 51 11 75 9 36 8 52 -7 92 -27 75 -34 73 -34
-12 0 -85 -9 -155 -19 -155 -13 1 -41 72 -41 105 0 19 -4 37 -10 40 -6 4 -10
-37 -9 -113 0 -125 -5 -164 -27 -197 -8 -11 -14 -27 -14 -36 0 -9 -7 -23 -16
-30 -15 -12 -16 -9 -9 36 13 98 17 326 5 341 -7 7 -16 29 -20 49 -7 30 -4 40
21 72 16 21 34 43 40 48 6 6 35 33 64 60 29 28 72 64 96 82 24 17 64 50 88 72
29 27 60 44 94 53 29 7 80 30 114 50 35 21 68 38 75 38 7 0 24 9 38 20 14 11
29 20 33 20 5 0 20 9 34 20 14 11 39 20 54 20 19 0 29 5 29 15 0 8 18 22 40
31 22 9 45 25 51 35 5 11 6 18 2 17 -4 0 -22 -3 -40 -5z"/>
<path d="M5437 7403 c-3 -5 -8 -29 -12 -55 -8 -53 8 -67 25 -22 18 47 7 110
-13 77z"/>
<path d="M5400 7259 c0 -11 5 -17 10 -14 6 3 10 13 10 21 0 8 -4 14 -10 14 -5
0 -10 -9 -10 -21z"/>
<path d="M4696 7204 c-18 -46 4 -143 48 -206 33 -50 50 -27 21 28 -8 16 -15
36 -15 45 0 9 -7 30 -15 45 -8 16 -15 46 -15 67 0 38 -13 50 -24 21z"/>
<path d="M5373 7190 c3 -12 0 -20 -6 -20 -7 0 -25 -16 -42 -35 -30 -36 -115
-95 -138 -95 -6 0 -25 -7 -42 -16 -16 -9 -65 -18 -107 -21 -43 -3 -78 -9 -78
-14 0 -17 74 -31 129 -25 78 9 136 33 206 84 75 55 106 97 98 135 -3 15 -10
27 -15 27 -6 0 -8 -9 -5 -20z"/>
<path d="M6180 7075 c0 -43 4 -44 24 -3 20 39 20 38 -4 38 -16 0 -20 -7 -20
-35z"/>
<path d="M6071 7054 c-8 -19 -9 -35 -1 -58 6 -18 11 -84 13 -147 1 -64 6 -113
11 -112 34 7 49 289 17 327 -19 22 -26 20 -40 -10z"/>
<path d="M7180 7062 c-14 -9 -48 -35 -77 -59 -28 -24 -55 -43 -61 -43 -5 0
-29 -15 -54 -34 -24 -19 -60 -41 -79 -49 -19 -8 -59 -35 -89 -62 -30 -26 -71
-57 -90 -70 -52 -34 -220 -195 -267 -256 -23 -30 -52 -74 -66 -99 -13 -25 -31
-58 -40 -75 -65 -118 -106 -269 -122 -447 -6 -57 -10 -68 -25 -68 -23 0 -138
126 -147 160 -3 14 -10 31 -16 37 -5 7 -6 28 -3 47 4 22 1 48 -9 72 -25 61
-20 134 26 341 11 51 19 101 16 110 -3 16 -5 16 -11 -2 -4 -11 -16 -38 -26
-60 -35 -78 -70 -181 -82 -245 -28 -155 -28 -163 0 -271 13 -49 68 -133 131
-198 97 -101 136 -163 152 -246 12 -61 21 -102 49 -225 12 -52 26 -114 31
-138 12 -59 15 -62 48 -49 23 9 34 7 54 -6 15 -9 29 -13 32 -8 3 5 1 12 -4 16
-6 3 -20 27 -32 53 -12 26 -25 54 -30 63 -4 9 -11 33 -14 53 -4 20 -11 39 -16
42 -5 3 -9 18 -9 33 0 16 -7 48 -15 71 -8 23 -15 63 -15 88 0 25 -7 74 -16
108 -20 81 -15 325 9 399 50 156 85 238 130 296 15 20 27 40 27 43 0 7 11 22
40 54 9 9 36 44 60 76 25 32 83 91 130 129 47 39 93 79 103 89 10 10 73 59
140 110 67 50 126 98 130 105 4 7 14 13 21 13 15 0 116 96 116 111 0 11 0 11
-30 -9z"/>
<path d="M6277 6994 c-28 -32 -37 -49 -32 -65 7 -23 34 -22 45 1 13 24 34 100
29 104 -2 2 -21 -16 -42 -40z"/>
<path d="M7327 7024 c-4 -4 -7 -22 -7 -39 0 -18 -7 -38 -15 -45 -8 -7 -15 -25
-15 -40 0 -15 -7 -33 -15 -40 -8 -7 -15 -23 -15 -35 0 -12 -7 -28 -15 -35 -8
-7 -15 -26 -15 -42 0 -16 -6 -31 -15 -34 -8 -4 -15 -16 -15 -29 0 -12 -7 -28
-15 -35 -8 -7 -15 -23 -15 -36 0 -12 -7 -29 -15 -37 -7 -8 -17 -27 -21 -43 -4
-15 -13 -39 -20 -53 -8 -14 -14 -34 -14 -43 0 -10 -4 -18 -9 -18 -5 0 -13 -17
-19 -37 -6 -21 -20 -63 -32 -93 -12 -30 -24 -64 -27 -75 -3 -11 -11 -34 -19
-52 -8 -17 -14 -39 -14 -50 0 -10 -7 -27 -15 -37 -8 -11 -15 -30 -15 -42 0
-12 -7 -35 -15 -50 -8 -16 -15 -40 -15 -54 0 -15 -4 -30 -9 -35 -5 -6 -14 -30
-19 -55 -6 -25 -16 -63 -21 -85 -27 -105 -43 -196 -37 -212 11 -27 23 -4 50
92 15 50 33 106 41 125 14 34 53 162 82 270 8 30 19 60 23 65 4 6 11 25 15 42
3 18 11 35 16 38 15 10 10 -49 -6 -71 -8 -10 -15 -38 -15 -60 0 -24 -6 -47
-15 -54 -9 -8 -15 -30 -15 -59 -1 -25 -7 -57 -15 -71 -8 -14 -15 -38 -15 -55
0 -16 -7 -39 -15 -49 -8 -11 -15 -32 -15 -47 0 -15 -7 -40 -15 -55 -8 -16 -15
-42 -15 -59 0 -16 -7 -39 -15 -49 -8 -11 -15 -31 -15 -44 0 -27 -21 -52 -44
-52 -8 0 -20 -9 -26 -20 -6 -11 -19 -20 -30 -20 -10 0 -22 -5 -25 -10 -4 -7
-13 -6 -26 1 -11 5 -29 9 -40 7 -18 -3 -19 -4 -4 -25 23 -32 78 -31 122 3 27
21 37 23 48 14 12 -10 15 -9 15 3 0 9 8 21 19 26 20 11 48 80 60 149 4 24 13
48 19 54 7 7 12 25 12 41 0 15 5 38 11 49 6 12 24 67 39 123 15 55 32 110 38
120 6 11 16 49 22 85 6 36 17 83 24 105 8 22 21 65 31 95 16 52 37 110 56 155
55 129 100 308 128 513 9 61 2 120 -12 106z m-235 -806 c-10 -22 -11 -21 -11
12 -1 26 2 31 11 22 8 -8 8 -17 0 -34z"/>
<path d="M5979 6901 c-9 -29 -9 -47 0 -72 15 -44 14 -85 -5 -144 -9 -27 -18
-56 -20 -63 -9 -31 -24 4 -25 56 0 51 -14 144 -19 132 -1 -3 -4 -49 -6 -103
-3 -58 -10 -108 -18 -120 -8 -12 -16 -41 -19 -64 -4 -35 -2 -41 12 -36 9 3 22
13 29 21 27 35 12 -21 -19 -67 -18 -25 -47 -80 -66 -121 -19 -41 -40 -81 -47
-90 -7 -8 -15 -24 -18 -35 -3 -11 -17 -63 -31 -115 -14 -52 -31 -135 -37 -185
-12 -90 -42 -173 -79 -221 -11 -14 -23 -39 -26 -57 -4 -18 -13 -39 -20 -47
-14 -17 -35 -105 -35 -149 0 -16 -9 -40 -21 -55 -11 -14 -25 -41 -30 -59 -5
-18 -22 -41 -39 -52 -66 -44 -144 -163 -177 -272 -21 -71 -24 -313 -3 -338 13
-16 5 -111 -11 -131 -23 -28 -5 -226 23 -258 4 -6 8 -20 8 -32 0 -12 9 -33 20
-47 11 -14 20 -30 20 -35 0 -5 7 -15 15 -22 8 -7 15 -21 15 -32 0 -10 7 -21
15 -24 8 -4 15 -12 15 -19 0 -25 165 -181 245 -233 44 -28 86 -56 93 -62 11
-10 137 -70 187 -90 202 -78 279 -101 480 -139 256 -48 342 -54 711 -48 192 3
387 10 434 16 159 21 212 33 231 52 20 20 83 26 94 9 7 -11 203 -14 229 -4 38
14 9 19 -99 15 -122 -3 -146 6 -82 35 17 8 39 18 47 23 32 19 92 41 108 41 10
0 22 4 28 9 5 6 37 24 72 41 34 17 62 37 62 45 0 8 8 15 18 15 11 0 27 9 37
20 23 25 17 25 -37 -1 -58 -29 -115 -54 -163 -74 -22 -9 -47 -20 -55 -24 -9
-5 -31 -12 -50 -16 -19 -4 -40 -12 -47 -17 -7 -5 -36 -13 -65 -18 -79 -13
-150 -29 -178 -40 -61 -24 -499 -68 -684 -69 -146 -1 -523 29 -546 44 -5 3
-42 10 -82 15 -91 12 -177 33 -328 81 -133 42 -347 148 -430 212 -84 65 -206
188 -215 219 -4 12 -11 25 -15 28 -8 5 -13 26 -11 48 1 16 21 16 21 -1 0 -24
152 -170 235 -226 84 -57 289 -155 412 -196 105 -36 344 -81 528 -101 235 -26
689 -23 865 6 113 18 120 20 120 30 0 17 -192 12 -241 -6 -38 -14 -84 -15
-353 -10 -170 4 -313 9 -319 13 -5 3 -59 12 -121 19 -123 15 -246 37 -262 47
-6 3 -35 11 -65 16 -82 15 -143 31 -154 42 -5 5 -16 9 -25 9 -8 1 -33 9 -55
20 -22 11 -46 19 -53 20 -7 0 -20 4 -30 10 -9 5 -35 17 -57 26 -39 17 -205
112 -215 123 -3 4 -23 18 -45 32 -49 32 -175 159 -175 176 0 19 -17 16 -26 -4
-5 -14 -9 -8 -14 22 -4 22 -13 63 -19 90 -35 149 -39 240 -11 240 19 0 50 -61
50 -100 0 -80 124 -254 248 -348 56 -42 174 -117 185 -117 3 0 36 -14 74 -31
95 -42 101 -45 168 -67 111 -36 130 -41 175 -48 25 -3 63 -12 85 -19 53 -17
200 -42 305 -52 154 -14 623 -9 770 9 120 15 351 65 379 82 6 4 34 9 62 11 27
3 60 11 72 20 12 8 27 15 34 15 6 0 42 14 80 31 37 17 84 38 103 46 19 9 73
41 120 72 47 31 90 58 96 61 19 8 107 94 132 129 30 41 21 52 -14 18 -24 -24
-57 -48 -208 -150 -22 -15 -63 -38 -91 -52 -114 -54 -186 -85 -199 -85 -8 0
-17 -4 -20 -9 -3 -4 -26 -11 -51 -14 -25 -4 -55 -13 -68 -21 -27 -17 -155 -40
-332 -61 -162 -19 -166 -19 -159 0 5 12 -3 15 -35 15 -23 0 -41 -4 -41 -10 0
-5 7 -10 16 -10 8 0 12 -5 8 -11 -4 -7 -23 -9 -53 -5 -25 3 -170 8 -321 11
-151 2 -306 9 -345 15 -38 6 -95 14 -125 19 -64 9 -132 26 -210 51 -30 10 -80
25 -110 34 -167 48 -162 46 -322 140 -118 69 -151 93 -166 116 -7 11 -10 20
-7 20 4 0 41 -22 83 -50 43 -27 104 -61 137 -76 33 -14 83 -37 111 -50 29 -13
94 -35 145 -48 52 -14 137 -37 189 -51 107 -30 258 -54 370 -60 41 -3 129 -9
196 -13 202 -16 314 -15 363 3 40 14 111 18 233 12 31 -1 53 4 65 14 10 9 38
19 62 23 24 4 68 15 99 26 31 11 66 20 77 20 11 0 29 6 40 14 11 7 37 16 57
20 54 10 57 26 5 26 -27 0 -49 -6 -57 -15 -8 -9 -30 -15 -59 -15 -26 0 -52 -5
-58 -11 -11 -11 -92 -22 -292 -39 -63 -5 -126 -12 -140 -14 -94 -19 -223 -16
-616 18 -121 10 -274 38 -395 73 -30 8 -80 22 -110 31 -30 8 -69 21 -87 29
-17 7 -36 13 -41 13 -6 0 -23 6 -39 14 -15 8 -46 22 -68 32 -22 9 -47 21 -55
26 -8 4 -22 11 -30 14 -31 12 -36 15 -65 34 -16 11 -39 24 -50 29 -45 21 -188
146 -227 199 -50 66 -66 91 -74 112 -3 8 -12 30 -21 47 -24 48 -23 247 1 300
43 93 56 116 87 156 39 49 132 143 173 173 27 20 28 23 16 59 -17 52 -6 155
22 213 13 25 42 66 65 90 33 35 42 53 46 90 10 94 29 208 43 256 8 26 14 61
14 76 0 15 7 41 15 56 8 16 15 36 15 45 0 9 7 30 15 45 8 16 15 36 15 45 0 9
7 30 15 45 8 16 15 37 15 46 0 9 5 20 10 23 6 3 10 16 10 28 0 13 7 33 16 46
11 15 15 34 11 57 -5 31 -4 34 14 29 15 -5 19 -2 19 15 0 12 7 28 15 37 8 8
12 19 9 24 -3 6 1 18 9 27 25 29 30 126 10 213 -10 44 -21 79 -25 79 -4 0 -12
-18 -19 -39z"/>
<path d="M7598 6861 c-16 -29 -28 -58 -28 -65 0 -7 -7 -27 -16 -44 -8 -18 -12
-37 -9 -43 4 -5 0 -18 -8 -27 -8 -9 -22 -42 -32 -72 -9 -30 -23 -70 -31 -87
-27 -65 -74 -212 -74 -233 0 -12 -7 -34 -15 -49 -8 -16 -17 -48 -21 -72 -3
-24 -12 -65 -21 -91 -14 -47 -10 -94 8 -83 5 4 9 21 9 39 0 19 7 39 15 46 9 7
15 29 15 55 0 26 6 48 15 55 8 7 15 24 15 39 0 14 7 39 15 55 8 15 15 38 15
50 0 12 6 30 14 41 7 11 16 37 20 58 4 20 11 37 16 37 6 0 10 10 10 23 0 12 7
35 15 51 8 15 15 36 15 45 0 10 7 26 15 37 8 10 15 31 15 45 0 14 7 34 15 45
8 10 15 37 15 58 0 22 7 47 16 57 9 10 14 30 12 50 l-3 34 -27 -54z"/>
<path d="M6220 6862 c0 -16 -9 -37 -20 -47 -11 -10 -20 -29 -20 -42 0 -14 -9
-36 -20 -50 -11 -14 -20 -34 -20 -44 0 -28 -11 -48 -23 -43 -17 6 -17 -324 0
-351 7 -11 18 -33 23 -49 15 -40 27 -23 33 44 8 85 23 138 58 200 5 8 13 25
18 37 6 11 15 24 20 28 20 11 13 45 -9 45 -16 0 -20 7 -20 33 0 17 -5 51 -10
75 -12 52 0 115 29 146 28 30 29 56 1 31 -18 -16 -20 -16 -20 -2 0 10 -4 17
-10 17 -5 0 -10 -13 -10 -28z"/>
<path d="M7129 6809 c-36 -39 -73 -86 -82 -105 -15 -30 -21 -34 -49 -32 -28 3
-34 -1 -36 -20 -2 -13 -10 -26 -18 -29 -8 -3 -14 -9 -14 -13 0 -5 -16 -32 -35
-61 -19 -30 -35 -59 -35 -66 0 -7 -4 -13 -10 -13 -5 0 -10 -10 -10 -23 0 -12
-6 -31 -14 -42 -7 -11 -18 -36 -24 -55 -6 -19 -22 -66 -36 -104 -14 -38 -26
-78 -26 -90 0 -12 -6 -39 -14 -61 -8 -22 -17 -78 -21 -125 -4 -47 -13 -107
-20 -135 -17 -63 -39 -326 -30 -354 l7 -22 18 24 c12 15 22 53 29 108 5 46 19
116 31 154 11 39 23 86 26 105 3 19 12 49 20 67 8 17 14 39 14 50 0 10 7 27
15 37 8 11 15 28 15 37 0 10 6 30 14 46 8 15 22 48 31 73 24 63 36 88 104 230
34 69 61 130 61 137 0 6 3 13 8 15 9 4 102 190 102 204 0 7 7 17 15 24 8 7 15
20 15 30 0 10 7 23 15 30 15 13 21 51 8 49 -5 0 -38 -32 -74 -70z m-129 -178
c0 -11 -4 -23 -10 -26 -6 -4 -10 5 -10 19 0 14 5 26 10 26 6 0 10 -9 10 -19z
m-69 -154 c-8 -8 -11 -4 -11 14 0 33 14 47 18 19 2 -12 -1 -27 -7 -33z"/>
<path d="M7770 6767 c0 -18 -6 -41 -14 -52 -7 -11 -16 -38 -20 -60 -4 -21 -21
-68 -37 -103 -16 -36 -29 -74 -29 -86 0 -11 -7 -30 -15 -40 -8 -11 -15 -27
-15 -36 0 -9 -6 -30 -14 -46 -8 -16 -22 -63 -31 -104 -10 -41 -29 -104 -42
-140 -12 -36 -23 -72 -23 -80 0 -8 -6 -27 -14 -42 -22 -43 -104 -309 -110
-358 -3 -25 -1 -52 4 -60 10 -15 13 -9 40 75 32 97 44 131 52 140 4 5 8 17 8
27 0 20 55 190 72 222 6 11 14 34 18 51 4 16 24 86 45 155 20 69 45 156 55
193 10 37 23 73 28 80 5 7 12 26 15 42 3 17 14 59 25 95 10 36 22 86 26 113 6
39 5 47 -8 47 -11 0 -16 -10 -16 -33z"/>
<path d="M5425 6509 c-147 -74 -203 -100 -240 -113 -22 -7 -58 -25 -79 -40
-21 -14 -43 -26 -49 -26 -11 0 -154 -66 -228 -105 -26 -14 -56 -25 -67 -25
-10 0 -35 -11 -55 -24 -30 -21 -71 -43 -193 -103 -10 -6 -47 -24 -81 -41 -35
-18 -69 -32 -75 -32 -7 -1 -69 -29 -138 -65 -177 -90 -323 -162 -410 -202 -41
-19 -106 -50 -145 -70 -288 -146 -383 -194 -470 -235 -55 -27 -104 -48 -108
-48 -5 0 -27 -13 -50 -28 -46 -31 -248 -132 -264 -132 -6 0 -22 -9 -36 -20
-14 -12 -41 -26 -59 -32 -18 -6 -45 -19 -60 -30 -14 -10 -35 -18 -46 -18 -11
0 -25 -6 -31 -14 -6 -8 -26 -20 -44 -27 -18 -7 -60 -30 -94 -51 -35 -21 -66
-38 -71 -38 -11 0 -71 -31 -102 -53 -13 -9 -32 -17 -41 -17 -18 0 -106 -44
-130 -66 -8 -8 -20 -14 -25 -14 -5 0 -35 -24 -66 -53 l-57 -53 4 -69 c2 -39 7
-160 10 -269 7 -262 7 -262 205 -361 63 -32 210 -105 325 -162 116 -58 262
-133 325 -168 63 -34 205 -109 315 -165 110 -57 270 -139 355 -183 85 -45 283
-146 440 -225 157 -79 290 -148 297 -153 6 -6 134 -72 285 -148 439 -222 792
-403 802 -412 6 -5 15 -9 22 -9 7 0 41 -16 76 -36 34 -20 182 -96 328 -170
251 -127 366 -186 400 -204 70 -39 567 -283 610 -300 35 -14 83 -23 130 -25
89 -3 103 1 95 26 -5 14 -1 19 13 19 11 0 25 7 32 15 7 8 20 15 30 15 10 0 20
6 23 14 3 8 22 19 41 26 20 6 62 27 93 46 31 19 63 34 70 34 7 0 13 4 13 10 0
8 100 60 116 60 3 0 17 9 31 20 14 11 33 20 41 20 16 0 94 49 100 63 2 4 11 7
19 7 9 0 38 14 65 30 26 17 55 30 62 30 8 0 16 6 19 14 3 7 20 16 38 20 18 3
47 17 65 31 18 14 39 25 47 25 8 0 20 7 27 15 7 8 18 15 25 15 7 0 18 6 25 14
6 8 23 16 38 18 17 2 28 10 30 21 3 16 0 18 -20 12 -12 -4 -28 -13 -34 -21 -6
-8 -21 -14 -33 -14 -12 0 -24 -7 -27 -15 -4 -8 -16 -15 -29 -15 -12 0 -28 -7
-35 -15 -7 -8 -18 -15 -26 -15 -18 0 -84 -40 -84 -51 0 -5 -8 -9 -18 -9 -17 0
-111 -40 -142 -60 -8 -6 -27 -15 -42 -21 -14 -6 -29 -17 -32 -25 -3 -8 -12
-14 -20 -14 -20 0 -139 -62 -149 -77 -4 -7 -19 -13 -31 -13 -13 0 -26 -7 -30
-15 -3 -8 -16 -15 -30 -15 -14 0 -27 -4 -30 -9 -7 -11 -83 -51 -97 -51 -6 0
-17 -7 -25 -15 -9 -8 -24 -15 -35 -15 -10 0 -19 -4 -19 -10 0 -5 -8 -10 -18
-10 -10 0 -27 -7 -39 -15 -26 -18 -126 -45 -169 -45 -17 0 -37 7 -44 15 -7 8
-21 15 -32 15 -11 0 -32 6 -46 14 -15 8 -49 25 -77 39 -97 49 -270 138 -285
147 -8 4 -62 31 -120 60 -109 52 -121 59 -155 78 -11 7 -27 15 -35 18 -8 3
-22 10 -30 15 -8 5 -22 12 -30 15 -8 3 -22 10 -30 15 -8 5 -37 20 -65 34 -27
14 -59 31 -70 37 -34 19 -48 26 -95 48 -25 12 -52 26 -60 31 -8 5 -22 12 -30
15 -8 3 -22 10 -30 15 -8 5 -22 12 -30 15 -29 11 -35 15 -125 63 -86 47 -153
81 -185 95 -8 3 -28 15 -45 26 -16 11 -37 23 -45 26 -34 14 -160 79 -245 125
-49 27 -97 51 -105 54 -8 4 -22 10 -30 15 -8 5 -35 19 -60 30 -25 12 -52 25
-60 30 -8 5 -51 27 -95 50 -80 41 -93 47 -130 68 -11 6 -42 23 -70 37 -27 14
-57 29 -65 34 -8 6 -62 33 -120 61 -108 53 -127 63 -157 80 -10 6 -24 12 -30
15 -33 13 -40 17 -68 35 -16 11 -37 23 -45 26 -8 3 -19 8 -25 10 -5 2 -28 15
-50 27 -56 32 -89 49 -175 91 -41 20 -83 41 -92 46 -39 22 -56 31 -133 70 -44
22 -88 45 -97 50 -10 6 -26 14 -35 20 -10 5 -40 21 -68 35 -27 14 -57 30 -65
35 -8 5 -35 18 -60 30 -25 11 -52 25 -60 30 -8 5 -22 11 -30 15 -8 3 -46 23
-85 43 -95 52 -244 131 -275 147 -343 171 -530 268 -536 276 -3 5 -14 9 -24 9
-11 0 -26 10 -34 23 -12 18 -13 55 -5 232 6 153 6 218 -2 238 -17 40 3 71 60
97 25 12 127 63 226 114 99 51 272 140 385 196 113 57 207 107 208 112 2 4 12
8 22 8 10 0 21 4 24 8 3 5 83 48 178 96 95 48 180 91 188 95 8 5 49 25 90 46
79 38 99 49 128 65 9 6 24 13 32 16 8 3 22 9 30 14 8 5 65 34 125 65 61 30
117 60 125 65 8 6 35 19 60 30 25 12 52 25 60 30 8 5 22 11 30 15 8 3 56 27
105 54 50 27 171 90 270 140 99 51 223 114 275 142 120 64 241 125 352 179 48
23 103 52 123 66 20 13 42 24 49 24 8 0 19 7 26 15 7 8 18 15 25 15 7 0 18 7
25 15 7 8 20 15 30 15 10 0 23 7 30 15 7 8 23 15 35 15 13 0 25 7 29 15 3 8
14 15 24 15 11 0 25 7 32 15 7 8 23 15 35 15 12 0 28 7 35 15 7 8 21 15 32 15
19 0 21 21 2 26 -5 2 -36 -11 -69 -27z"/>
<path d="M5546 6400 c-22 -17 -45 -30 -52 -30 -7 0 -14 -3 -16 -7 -1 -5 -25
-18 -53 -31 -27 -13 -58 -27 -67 -33 -10 -5 -24 -9 -32 -9 -8 0 -21 -6 -28
-12 -7 -7 -89 -51 -183 -98 -93 -46 -172 -88 -175 -91 -3 -4 -18 -11 -33 -14
-15 -4 -27 -10 -27 -14 0 -3 -21 -15 -47 -26 -49 -21 -86 -40 -323 -162 -80
-42 -181 -93 -225 -115 -44 -22 -93 -46 -110 -55 -192 -100 -460 -236 -535
-272 -45 -22 -65 -32 -97 -51 -10 -6 -25 -13 -33 -16 -8 -3 -22 -10 -30 -15
-8 -5 -22 -12 -30 -15 -8 -3 -22 -9 -30 -14 -8 -5 -40 -21 -70 -36 -30 -15
-57 -30 -60 -34 -3 -4 -23 -15 -45 -24 -22 -10 -67 -30 -100 -46 -33 -15 -67
-31 -75 -34 -8 -4 -69 -35 -135 -70 -66 -35 -214 -111 -330 -170 -198 -100
-270 -137 -305 -157 -8 -5 -22 -12 -30 -15 -78 -30 -91 -38 -88 -57 2 -11 10
-23 18 -28 8 -4 49 -24 90 -44 41 -21 102 -52 135 -71 33 -18 67 -36 75 -40 8
-3 22 -9 30 -14 8 -5 51 -28 95 -50 44 -23 107 -57 140 -76 33 -18 66 -36 73
-39 31 -13 41 -18 97 -50 33 -18 123 -66 200 -105 77 -40 181 -94 230 -121 50
-26 140 -73 200 -104 61 -31 117 -60 125 -65 8 -6 36 -20 61 -32 55 -27 176
-90 304 -158 50 -27 110 -58 135 -70 25 -12 52 -25 60 -30 8 -5 65 -35 125
-65 106 -54 125 -64 163 -85 30 -16 381 -195 572 -292 102 -51 187 -95 190
-98 3 -3 43 -25 90 -49 88 -44 108 -54 138 -71 9 -5 37 -19 62 -31 25 -12 52
-25 60 -30 8 -5 22 -12 30 -15 8 -3 29 -13 45 -22 50 -28 218 -114 460 -237
127 -64 237 -120 245 -125 8 -5 51 -26 95 -48 44 -22 111 -56 150 -76 96 -50
175 -49 265 5 8 4 41 21 73 36 31 15 57 31 57 35 0 4 8 8 18 8 9 1 35 12 57
25 22 13 103 56 180 95 77 39 160 82 185 95 25 12 52 26 60 29 8 4 83 42 165
85 83 43 254 131 380 195 261 133 476 244 520 268 17 8 41 21 55 27 14 6 88
44 165 85 77 40 262 135 410 210 237 120 444 226 540 277 29 16 105 55 135 70
8 4 22 10 30 14 8 3 56 27 105 54 50 26 142 75 205 107 63 32 117 61 120 65 3
4 18 11 33 14 15 4 27 11 27 16 0 5 6 9 13 9 7 0 44 16 82 36 79 41 276 143
535 276 96 50 228 117 293 150 118 59 137 78 97 98 -8 5 -62 31 -120 60 -58
28 -113 55 -122 61 -10 5 -26 13 -35 19 -10 5 -94 48 -188 95 -305 156 -457
234 -469 244 -6 5 -31 15 -56 22 -25 7 -49 17 -55 23 -5 6 -49 31 -98 56 -48
25 -113 59 -145 76 -119 65 -439 224 -450 224 -7 0 -12 5 -12 10 0 6 -9 10
-19 10 -11 0 -26 7 -35 15 -8 8 -21 15 -29 15 -8 0 -20 7 -27 15 -7 8 -20 15
-29 15 -9 1 -34 12 -56 25 -22 14 -62 36 -90 51 -27 14 -75 38 -105 54 -30 17
-61 30 -67 30 -7 0 -13 5 -13 10 0 6 -7 10 -15 10 -13 0 -113 46 -155 71 -8 5
-22 12 -30 15 -8 3 -22 10 -30 15 -8 5 -22 12 -30 15 -8 3 -22 9 -30 14 -8 5
-35 20 -60 34 -25 13 -65 36 -90 50 -25 14 -52 28 -60 32 -8 3 -23 10 -32 15
-10 5 -27 9 -38 9 -11 0 -23 7 -26 15 -4 8 -12 15 -20 15 -7 0 -32 13 -56 29
-24 15 -79 45 -123 65 -44 21 -107 51 -140 68 -33 17 -75 38 -92 47 -18 8 -33
19 -33 23 0 4 -8 8 -18 8 -10 0 -28 7 -40 16 -13 9 -26 14 -28 11 -11 -11 20
-44 65 -70 25 -15 53 -32 61 -37 8 -5 63 -32 123 -61 59 -28 109 -55 112 -59
2 -4 26 -15 52 -25 26 -10 62 -28 78 -40 17 -12 46 -28 65 -36 19 -7 62 -30
95 -49 33 -20 87 -49 120 -64 98 -46 139 -68 156 -83 9 -8 32 -18 50 -23 19
-6 50 -20 69 -32 57 -35 160 -88 173 -88 7 0 47 -22 91 -48 114 -68 179 -102
198 -102 9 0 20 -4 23 -10 3 -5 41 -26 83 -46 42 -20 84 -40 92 -45 8 -5 26
-14 40 -20 46 -19 200 -99 248 -129 26 -16 74 -43 107 -60 33 -16 80 -41 105
-55 25 -13 55 -25 67 -25 31 0 53 -10 53 -24 0 -6 -19 -24 -41 -41 -29 -22
-36 -31 -24 -33 9 -2 23 2 31 9 26 21 121 2 209 -42 44 -23 86 -46 94 -52 15
-13 106 -63 186 -102 28 -14 57 -29 65 -34 8 -6 56 -29 105 -52 123 -58 245
-138 245 -162 0 -11 -12 -23 -32 -32 -18 -7 -45 -23 -60 -34 -15 -12 -53 -33
-85 -47 -32 -14 -85 -39 -117 -55 -33 -16 -67 -29 -76 -29 -9 0 -29 -13 -45
-30 -16 -16 -36 -30 -46 -30 -9 0 -27 -8 -40 -18 -34 -27 -294 -152 -314 -152
-9 0 -29 -13 -43 -28 -24 -25 -235 -132 -260 -132 -6 0 -34 -16 -63 -36 -30
-20 -71 -43 -92 -50 -22 -8 -76 -36 -122 -64 -45 -27 -89 -50 -97 -50 -19 0
-347 -166 -373 -189 -33 -28 -76 -44 -144 -50 -65 -6 -90 -24 -51 -36 35 -11
17 -28 -63 -60 -42 -16 -79 -33 -83 -37 -4 -5 -18 -8 -30 -8 -13 0 -26 -5 -30
-11 -3 -6 -25 -20 -48 -31 -22 -11 -63 -33 -91 -48 -27 -16 -62 -34 -78 -41
-15 -6 -57 -26 -95 -45 -37 -19 -72 -34 -78 -34 -6 0 -17 -7 -24 -15 -7 -8
-21 -15 -32 -15 -11 0 -31 -9 -45 -20 -14 -11 -31 -20 -38 -20 -7 0 -43 -18
-81 -40 -71 -40 -125 -67 -415 -208 -91 -44 -179 -92 -195 -105 -17 -14 -79
-49 -139 -78 -61 -29 -187 -90 -281 -136 -94 -46 -173 -83 -177 -83 -3 0 -35
-20 -70 -44 -36 -23 -110 -62 -164 -86 -54 -23 -102 -46 -108 -50 -24 -19
-101 -21 -149 -5 -62 21 -413 196 -450 224 -6 4 -38 18 -71 31 -33 13 -67 28
-75 35 -8 6 -45 25 -81 43 -37 17 -83 42 -102 55 -20 13 -63 33 -96 43 -40 12
-61 24 -61 34 0 15 -141 90 -167 90 -6 0 -64 29 -128 65 -65 36 -120 65 -122
65 -9 0 -291 141 -348 175 -33 19 -73 41 -90 50 -16 8 -37 19 -45 24 -8 5 -33
17 -55 27 -22 11 -56 28 -75 40 -19 11 -55 28 -80 38 -25 10 -54 26 -65 36
-11 10 -42 26 -70 35 -27 9 -66 26 -85 38 -19 12 -55 32 -80 44 -25 13 -52 26
-60 31 -30 17 -291 153 -391 203 -19 10 -41 25 -49 33 -7 9 -18 16 -25 16 -10
0 -117 52 -314 153 -20 11 -57 31 -82 47 -25 15 -73 38 -107 50 -72 26 -90 43
-72 65 10 13 9 15 -8 15 -41 0 -131 29 -173 56 -24 15 -69 41 -99 57 -30 16
-66 36 -80 45 -14 9 -68 38 -120 66 -224 118 -297 157 -337 177 -52 26 -80 64
-62 85 15 18 97 74 109 74 5 0 30 11 56 25 25 14 50 22 54 20 5 -3 15 1 22 9
8 7 32 23 54 34 138 69 281 146 294 157 8 7 56 32 105 56 78 37 100 43 165 45
44 1 76 6 78 13 2 6 -3 11 -10 11 -8 0 -24 13 -36 29 -25 34 -17 41 46 41 20
0 53 10 72 21 33 21 147 83 180 99 279 136 417 207 439 226 16 13 32 24 36 24
11 0 318 152 335 166 8 7 42 22 74 33 33 11 69 29 80 40 12 11 44 31 71 46 28
14 93 48 144 75 52 28 100 50 106 50 6 0 42 19 80 43 39 23 111 62 160 87 50
25 119 62 155 82 36 21 74 38 85 38 11 0 46 18 78 40 31 22 62 40 67 40 6 0
18 4 28 9 9 5 25 12 35 15 12 4 17 16 17 46 0 22 -1 40 -2 40 -2 0 -21 -14
-42 -30z"/>
<path d="M8655 6310 c3 -5 13 -10 21 -10 8 0 12 5 9 10 -3 6 -13 10 -21 10 -8
0 -12 -4 -9 -10z"/>
<path d="M6054 6246 c-3 -14 -1 -33 5 -43 8 -15 10 -10 11 25 0 47 -6 55 -16
18z"/>
<path d="M8880 6190 c0 -5 9 -10 21 -10 11 0 17 5 14 10 -3 6 -13 10 -21 10
-8 0 -14 -4 -14 -10z"/>
<path d="M8932 6168 c3 -7 14 -14 26 -16 11 -2 26 -10 32 -18 14 -16 40 -19
40 -4 0 5 -21 18 -46 30 -55 24 -57 24 -52 8z"/>
<path d="M9057 6114 c-11 -12 4 -24 29 -24 14 0 27 -7 30 -15 4 -8 17 -15 30
-15 15 0 24 -6 24 -15 0 -8 9 -15 20 -15 11 0 20 7 20 15 0 8 -6 15 -14 15 -7
0 -38 14 -69 30 -62 33 -61 33 -70 24z"/>
<path d="M9235 6020 c-7 -12 18 -24 37 -18 8 3 5 9 -9 16 -14 8 -24 9 -28 2z"/>
<path d="M9290 5986 c0 -9 8 -16 19 -16 11 0 23 -4 26 -10 3 -5 27 -20 53 -33
26 -14 83 -43 127 -66 44 -22 87 -41 96 -41 9 0 22 -7 29 -15 7 -8 18 -15 26
-15 7 0 33 -13 57 -30 25 -16 52 -30 60 -30 8 0 20 -7 27 -15 7 -8 21 -15 32
-15 11 0 34 -11 51 -24 18 -14 109 -63 202 -110 94 -47 175 -89 180 -93 12 -9
64 -34 170 -84 39 -18 72 -35 75 -38 3 -4 30 -19 60 -35 30 -15 98 -50 150
-78 52 -28 176 -92 275 -143 99 -51 214 -111 255 -134 41 -22 82 -43 90 -47
43 -18 101 -48 155 -79 33 -19 83 -46 110 -60 74 -37 85 -48 85 -84 0 -27 -5
-34 -34 -46 -19 -8 -37 -19 -41 -25 -3 -5 -13 -10 -22 -10 -9 0 -24 -6 -32
-14 -16 -14 -126 -72 -541 -283 -202 -103 -223 -113 -257 -133 -10 -6 -25 -13
-33 -16 -8 -3 -22 -9 -30 -14 -8 -5 -52 -28 -97 -50 -46 -23 -85 -45 -88 -50
-3 -4 -17 -11 -32 -15 -15 -3 -30 -10 -33 -13 -3 -4 -106 -58 -230 -120 -124
-62 -234 -118 -245 -124 -25 -14 -22 -12 -190 -98 -77 -39 -147 -75 -155 -79
-8 -5 -37 -20 -65 -34 -27 -14 -126 -64 -220 -112 -93 -47 -206 -104 -250
-127 -44 -22 -87 -44 -95 -48 -8 -5 -91 -47 -185 -95 -93 -47 -179 -91 -190
-97 -11 -6 -27 -15 -35 -19 -17 -9 -390 -197 -465 -236 -27 -14 -57 -29 -65
-33 -8 -5 -82 -43 -165 -85 -82 -41 -213 -109 -290 -149 -77 -41 -216 -113
-310 -160 -166 -85 -186 -95 -222 -116 -10 -6 -25 -13 -33 -16 -8 -3 -22 -10
-30 -15 -8 -5 -22 -12 -30 -15 -8 -3 -30 -13 -49 -22 -25 -12 -61 -17 -141
-17 -105 0 -128 6 -200 47 -8 4 -22 11 -30 14 -8 4 -47 23 -87 43 -40 20 -107
54 -150 75 -43 21 -100 50 -128 64 -91 46 -538 275 -670 343 -71 37 -164 84
-205 104 -41 20 -91 45 -110 56 -19 11 -62 33 -95 50 -33 16 -69 35 -80 41
-33 18 -43 24 -225 116 -96 49 -218 112 -270 139 -131 69 -145 77 -225 115
-38 18 -72 36 -75 39 -3 4 -30 18 -60 33 -30 15 -63 31 -72 36 -10 6 -26 14
-35 20 -10 5 -74 38 -143 73 -69 36 -172 90 -230 120 -58 31 -154 81 -215 112
-60 31 -117 60 -125 65 -8 5 -35 18 -60 30 -25 12 -94 48 -155 81 -60 32 -135
71 -165 86 -30 15 -57 30 -60 34 -3 3 -43 25 -90 48 -47 23 -92 46 -100 51
-20 11 -99 51 -190 96 -41 21 -77 40 -80 44 -3 3 -50 29 -105 57 -55 28 -134
69 -175 92 -124 66 -140 74 -147 68 -8 -8 43 -66 90 -102 21 -17 51 -40 66
-52 16 -13 35 -23 42 -23 17 0 101 -41 117 -57 7 -7 19 -13 26 -13 8 0 19 -7
26 -15 7 -8 23 -15 35 -15 12 0 28 -7 35 -15 7 -8 17 -15 23 -15 6 0 18 -6 26
-14 9 -7 41 -25 71 -40 79 -40 242 -123 300 -155 8 -4 29 -14 45 -23 17 -8 75
-41 130 -73 55 -32 118 -67 140 -78 22 -11 42 -22 45 -26 3 -3 32 -17 65 -30
33 -13 77 -34 97 -47 72 -46 296 -164 312 -164 5 0 17 -6 25 -14 9 -8 77 -44
151 -80 74 -37 144 -72 155 -78 54 -32 265 -145 295 -159 82 -39 110 -53 195
-99 50 -27 124 -66 165 -86 41 -20 86 -43 100 -51 14 -7 49 -25 79 -39 30 -13
78 -39 105 -57 28 -18 60 -38 71 -45 11 -6 27 -15 35 -18 60 -25 456 -227 538
-275 18 -10 39 -19 45 -19 14 0 65 -26 222 -110 61 -32 182 -95 270 -139 88
-44 167 -85 175 -90 8 -5 42 -21 75 -36 33 -15 66 -32 73 -38 36 -29 215 -80
252 -72 24 5 31 1 50 -29 25 -41 32 -44 51 -16 8 12 45 31 84 44 39 13 96 37
127 52 58 30 201 101 368 185 53 26 124 64 159 83 35 20 70 36 79 36 9 0 25 8
36 19 23 20 66 43 284 150 78 39 149 71 156 71 8 0 20 7 27 16 7 9 33 26 59
38 25 13 126 65 225 116 156 80 225 116 370 194 17 9 57 29 90 45 33 15 139
69 235 118 156 80 211 109 394 207 27 14 57 26 67 26 9 0 19 3 21 8 2 4 50 31
108 60 115 58 110 55 195 105 108 62 195 107 210 107 7 0 20 7 28 15 14 14
159 85 173 85 4 0 15 6 23 14 9 8 84 49 166 91 83 42 170 87 195 101 80 45
253 132 345 174 49 23 107 53 130 68 22 15 81 47 130 70 50 24 97 48 105 53 8
5 43 23 78 39 64 31 102 38 102 20 0 -24 19 -7 26 23 3 17 15 48 25 67 11 19
19 40 19 47 0 7 5 13 10 13 6 0 15 11 21 24 10 21 7 33 -19 78 -30 52 -100
108 -134 108 -9 0 -21 7 -28 15 -7 8 -38 24 -70 36 -33 12 -61 27 -63 33 -3 7
-27 21 -54 31 -26 10 -66 29 -88 41 -22 13 -76 41 -120 64 -44 23 -87 47 -95
55 -8 7 -31 17 -50 23 -19 5 -55 21 -80 36 -76 43 -227 116 -241 116 -7 0 -20
6 -28 14 -9 7 -43 28 -75 45 -33 17 -74 42 -90 55 -17 12 -44 26 -61 30 -39 9
-152 62 -159 75 -3 5 -24 12 -46 16 -22 4 -40 11 -40 16 0 5 -16 15 -36 24
-19 8 -48 24 -64 35 -15 11 -37 20 -48 20 -12 0 -24 4 -27 10 -7 11 -106 60
-123 60 -6 0 -17 9 -24 19 -8 11 -30 22 -51 26 -20 4 -40 11 -43 16 -8 14
-101 59 -120 59 -9 0 -28 9 -44 20 -15 11 -40 24 -54 30 -15 5 -47 23 -70 39
-36 25 -93 50 -178 78 -12 3 -18 0 -18 -11z"/>
<path d="M7310 5890 c0 -19 3 -21 12 -12 9 9 9 15 0 24 -9 9 -12 7 -12 -12z"/>
<path d="M5886 5801 c-3 -5 -8 -61 -10 -124 -5 -108 2 -145 20 -115 12 19 17
248 5 248 -5 0 -12 -4 -15 -9z"/>
<path d="M5720 5580 c-12 -37 -11 -51 10 -138 13 -53 28 -104 34 -112 7 -8 21
-32 31 -53 22 -43 134 -153 180 -177 16 -9 48 -27 70 -41 22 -13 58 -33 80
-43 22 -11 48 -23 57 -28 19 -9 119 -40 208 -65 30 -8 70 -19 89 -25 18 -5 74
-14 125 -19 50 -5 114 -13 141 -18 81 -16 361 -13 430 4 33 8 83 15 110 15 28
1 68 7 90 15 22 8 59 15 83 15 23 0 59 7 79 15 19 8 45 15 57 15 12 0 30 6 41
13 18 12 101 39 200 66 26 7 62 31 103 69 35 32 80 69 102 83 64 40 103 133
42 100 -10 -5 -38 -33 -63 -60 -26 -31 -52 -51 -64 -51 -12 0 -25 -4 -31 -9
-13 -13 -148 -65 -219 -86 -33 -9 -79 -23 -103 -31 -23 -8 -54 -14 -68 -14
-14 0 -46 -6 -72 -14 -99 -30 -244 -41 -492 -39 -170 2 -270 7 -325 18 -44 8
-93 15 -109 15 -16 0 -54 7 -85 16 -31 9 -81 23 -111 31 -30 9 -63 20 -73 24
-9 5 -39 16 -65 25 -139 47 -272 136 -347 234 -25 32 -45 64 -45 72 0 7 -7 22
-15 32 -8 11 -15 33 -15 50 0 32 -31 136 -41 136 -3 0 -12 -18 -19 -40z"/>
<path d="M5854 5529 c-3 -6 -1 -16 5 -22 8 -8 11 -5 11 11 0 24 -5 28 -16 11z"/>
<path d="M7380 5505 c0 -14 -7 -42 -15 -62 -8 -19 -15 -47 -14 -62 l0 -26 11
25 c5 14 19 46 30 72 20 45 19 78 -2 78 -5 0 -10 -11 -10 -25z"/>
<path d="M8272 5220 c-19 -61 -30 -78 -89 -136 -84 -81 -91 -86 -128 -103 -16
-7 -37 -17 -45 -22 -8 -5 -25 -14 -38 -19 -13 -6 -30 -17 -38 -25 -9 -8 -21
-15 -28 -15 -8 0 -19 -7 -26 -15 -7 -8 -25 -15 -41 -15 -15 0 -31 -4 -34 -10
-3 -5 -17 -10 -31 -10 -14 0 -34 -5 -45 -11 -46 -24 -224 -68 -324 -80 -44 -5
-91 -14 -104 -19 -40 -18 -635 -14 -712 5 -35 8 -79 15 -97 15 -18 0 -41 4
-51 10 -10 5 -43 14 -72 19 -70 13 -136 31 -176 47 -17 8 -36 14 -41 14 -6 0
-25 8 -44 17 -18 9 -45 22 -60 30 -14 7 -33 13 -42 13 -9 0 -16 4 -16 9 0 5
-10 13 -22 17 -42 12 -131 78 -198 144 -59 59 -95 112 -115 175 -6 20 -6 20
-21 0 -10 -13 -13 -32 -9 -55 10 -62 50 -176 76 -220 5 -8 13 -24 18 -36 5
-11 38 -50 73 -85 99 -102 162 -144 308 -207 19 -8 44 -20 55 -25 51 -26 184
-70 225 -74 25 -3 51 -10 59 -16 7 -6 39 -15 70 -19 31 -4 103 -15 161 -24
123 -19 218 -21 247 -5 12 6 46 12 75 12 l53 2 -70 8 c-290 34 -402 54 -490
87 -114 42 -135 53 -135 70 0 13 14 14 86 9 47 -3 91 -10 97 -15 19 -15 539
-21 657 -8 74 8 295 43 345 55 110 26 134 34 182 62 29 16 62 29 74 29 11 0
34 10 51 21 20 15 38 20 57 16 22 -5 36 2 77 38 27 25 53 45 57 45 23 0 157
119 194 173 14 20 31 37 38 37 6 0 21 11 33 25 28 32 37 32 102 -9 30 -19 58
-32 62 -30 8 5 -19 54 -36 65 -5 4 -6 14 -3 22 4 11 -4 19 -27 27 -18 6 -44
22 -56 35 -13 14 -29 25 -35 25 -6 0 -21 -31 -33 -70z m-2047 -496 c25 -16 34
-44 15 -44 -10 0 -69 27 -80 37 -5 5 21 23 33 23 4 0 19 -7 32 -16z"/>
<path d="M8450 5220 c0 -5 12 -12 28 -16 15 -3 43 -11 62 -19 19 -7 58 -16 85
-19 28 -4 70 -14 94 -22 33 -11 52 -12 74 -4 17 5 51 10 76 10 26 0 52 5 58
11 7 7 82 12 215 14 232 3 215 2 202 15 -5 5 -98 10 -221 11 -174 0 -216 -2
-241 -15 -42 -22 -124 -20 -175 3 -23 11 -64 19 -91 19 -26 0 -53 5 -59 11
-14 14 -107 15 -107 1z"/>
<path d="M9398 5158 c9 -9 15 -9 24 0 9 9 7 12 -12 12 -19 0 -21 -3 -12 -12z"/>
<path d="M8480 5075 c0 -8 4 -15 9 -15 5 0 19 -16 32 -35 13 -19 27 -35 32
-35 13 0 7 28 -8 34 -8 3 -15 10 -15 16 0 12 -32 50 -42 50 -5 0 -8 -7 -8 -15z"/>
<path d="M10105 5002 c-22 -9 -42 -20 -44 -25 -2 -4 -15 -13 -30 -19 -16 -7
-21 -12 -13 -15 8 -3 24 -1 35 5 59 27 74 34 94 46 13 7 20 16 16 19 -8 9 -10
8 -58 -11z"/>
<path d="M3665 4950 c3 -5 13 -10 21 -10 8 0 12 5 9 10 -3 6 -13 10 -21 10 -8
0 -12 -4 -9 -10z"/>
<path d="M5407 4910 c-18 -64 -4 -210 18 -188 2 2 1 51 -3 108 -5 70 -10 97
-15 80z"/>
<path d="M5430 4681 c0 -16 7 -34 15 -41 8 -7 15 -18 15 -25 0 -18 185 -205
203 -205 9 0 22 -6 29 -13 7 -7 20 -16 28 -20 8 -4 29 -16 45 -27 17 -11 42
-25 58 -31 15 -6 27 -15 27 -20 0 -5 8 -9 18 -9 9 0 44 -14 77 -30 33 -16 72
-30 86 -30 14 0 34 -7 45 -15 10 -8 29 -15 42 -15 13 0 35 -6 50 -14 15 -7 47
-16 72 -20 24 -4 49 -11 55 -15 5 -5 42 -11 82 -14 39 -3 80 -10 91 -16 12 -6
56 -11 99 -11 43 -1 105 -7 138 -15 63 -15 390 -19 450 -6 l30 7 -40 7 c-22 4
-70 7 -108 7 -37 0 -76 6 -87 12 -16 10 -24 10 -40 0 -23 -14 -172 -17 -198
-3 -15 8 -293 60 -412 78 -24 3 -67 15 -95 26 -27 10 -94 32 -147 48 -140 41
-324 134 -430 215 -31 24 -61 44 -67 44 -6 0 -11 6 -11 14 0 8 -14 28 -30 46
-30 33 -54 70 -64 103 -9 27 -26 20 -26 -12z"/>
<path d="M4165 4679 c-11 -17 -2 -18 30 -4 l30 13 -27 1 c-15 1 -30 -4 -33
-10z"/>
<path d="M7761 4651 c-15 -28 -14 -31 14 -31 28 0 33 21 11 39 -12 10 -17 8
-25 -8z"/>
<path d="M8617 4663 c-11 -10 -8 -43 3 -43 6 0 10 11 10 25 0 26 -2 29 -13 18z"/>
<path d="M8580 4599 c0 -6 -8 -21 -17 -34 -10 -12 -25 -33 -33 -45 -8 -12 -21
-28 -27 -36 -7 -7 -13 -17 -13 -23 0 -6 -4 -11 -9 -11 -11 0 -44 -50 -37 -57
3 -3 22 12 43 34 23 23 45 37 56 35 11 -2 17 3 17 15 0 10 9 36 20 58 22 42
26 75 10 75 -5 0 -10 -5 -10 -11z"/>
<path d="M6900 4456 c0 -12 10 -16 47 -16 55 0 48 17 -10 27 -30 4 -37 3 -37
-11z"/>
<path d="M7007 4434 c-11 -11 3 -24 25 -24 11 0 32 -7 46 -15 39 -21 119 -55
130 -55 33 0 190 -111 246 -175 53 -59 87 -71 106 -36 14 27 14 28 -22 40 -18
6 -57 33 -87 61 -58 53 -85 70 -201 126 -73 35 -204 84 -226 84 -6 0 -14 -3
-17 -6z"/>
<path d="M11690 4300 c0 -5 7 -10 15 -10 8 0 15 5 15 10 0 6 -7 10 -15 10 -8
0 -15 -4 -15 -10z"/>
<path d="M8040 4165 c0 -12 7 -14 28 -9 44 11 50 24 9 24 -26 0 -37 -4 -37
-15z"/>
<path d="M7970 4135 c-7 -9 -29 -15 -51 -15 -28 0 -39 -4 -39 -15 0 -20 7 -19
77 7 70 26 86 38 51 38 -14 0 -31 -7 -38 -15z"/>
<path d="M8085 3869 c-4 -6 -5 -13 -2 -15 7 -8 57 7 57 17 0 13 -47 11 -55 -2z"/>
<path d="M8360 3870 c0 -5 7 -10 15 -10 8 0 15 5 15 10 0 6 -7 10 -15 10 -8 0
-15 -4 -15 -10z"/>
<path d="M8016 3841 c-4 -5 0 -11 6 -14 18 -5 48 3 48 14 0 12 -47 12 -54 0z"/>
<path d="M7940 3810 c0 -5 14 -10 30 -10 17 0 30 5 30 10 0 6 -13 10 -30 10
-16 0 -30 -4 -30 -10z"/>
<path d="M7725 3750 c-4 -6 12 -10 39 -10 25 0 46 5 46 10 0 6 -18 10 -39 10
-22 0 -43 -4 -46 -10z"/>
<path d="M7601 3728 c-27 -9 -27 -24 0 -31 26 -7 102 15 97 28 -4 11 -69 14
-97 3z"/>
<path d="M8895 3670 c3 -5 13 -10 21 -10 8 0 14 5 14 10 0 6 -9 10 -21 10 -11
0 -17 -4 -14 -10z"/>
<path d="M8725 3645 l-40 -13 63 -1 c47 -1 63 2 60 12 -6 17 -36 18 -83 2z"/>
<path d="M8458 3615 c-39 -11 -90 -15 -270 -25 -5 0 -8 -5 -8 -11 0 -12 148
-7 325 10 122 12 139 16 130 31 -9 14 -120 11 -177 -5z"/>
<path d="M9180 2910 c0 -5 9 -10 20 -10 11 0 20 5 20 10 0 6 -9 10 -20 10 -11
0 -20 -4 -20 -10z"/>
<path d="M8945 2790 c-3 -5 3 -10 14 -10 11 0 23 5 26 10 3 6 -3 10 -14 10
-11 0 -23 -4 -26 -10z"/>
<path d="M8887 2763 c-13 -13 -7 -21 13 -16 11 3 20 9 20 14 0 10 -24 12 -33
2z"/>
<path d="M8783 2713 c-13 -2 -23 -8 -23 -13 0 -14 32 -21 46 -9 15 12 19 30 7
28 -5 -1 -18 -4 -30 -6z"/>
<path d="M8645 2640 c-3 -6 5 -10 19 -10 14 0 28 5 31 10 3 6 -5 10 -19 10
-14 0 -28 -4 -31 -10z"/>
<path d="M8595 2610 c-3 -5 3 -10 15 -10 12 0 18 5 15 10 -3 6 -10 10 -15 10
-5 0 -12 -4 -15 -10z"/>
<path d="M8470 2552 c0 -5 -11 -14 -25 -20 -24 -11 -34 -32 -15 -32 8 0 76 42
89 56 2 2 -8 4 -22 4 -15 0 -27 -4 -27 -8z"/>
<path d="M8355 2490 c-7 -11 -88 -50 -103 -50 -6 0 -12 -7 -16 -15 -3 -8 -14
-15 -24 -15 -11 0 -25 -7 -32 -15 -7 -8 -23 -15 -37 -15 -13 0 -26 -6 -29 -13
-2 -7 -27 -21 -54 -32 -28 -11 -50 -23 -50 -27 0 -15 47 -8 71 10 29 21 191
102 206 102 5 0 18 9 27 19 10 11 31 25 47 31 16 7 29 16 29 21 0 12 -27 11
-35 -1z"/>
</g>
</svg>
